<?xml version="1.0" encoding="UTF-8"?>
<svg version="1.1" xmlns="http://www.w3.org/2000/svg" width="961" height="961">
<path d="M0 0 C0.96341309 0.00757324 1.92682617 0.01514648 2.91943359 0.02294922 C15.33845095 0.30894777 25.43241025 4.42194132 36.1875 10.4375 C36.95578125 10.86546875 37.7240625 11.2934375 38.515625 11.734375 C43.51276104 14.79017762 47.60635867 18.58641367 51.75 22.6875 C52.28753906 23.21939941 52.82507813 23.75129883 53.37890625 24.29931641 C57.1875 28.18105698 57.1875 28.18105698 57.1875 30.4375 C57.8475 30.4375 58.5075 30.4375 59.1875 30.4375 C70.38305824 44.76330248 74.29896016 60.65413741 73.1875 78.4375 C71.44539717 90.14911564 65.29019973 99.9656313 56.1875 107.4375 C46.26280147 114.26833454 36.32086379 115.54032899 24.5 113.9375 C23.736875 113.7725 22.97375 113.6075 22.1875 113.4375 C21.84976562 114.015 21.51203125 114.5925 21.1640625 115.1875 C20.71804688 115.93 20.27203125 116.6725 19.8125 117.4375 C19.37164063 118.18 18.93078125 118.9225 18.4765625 119.6875 C18.05117188 120.265 17.62578125 120.8425 17.1875 121.4375 C16.5275 121.4375 15.8675 121.4375 15.1875 121.4375 C15.02314453 122.28441406 15.02314453 122.28441406 14.85546875 123.1484375 C14.08792303 125.77874038 12.94428997 127.73495658 11.5 130.0625 C10.95472656 130.94808594 10.40945313 131.83367187 9.84765625 132.74609375 C9.29980469 133.63425781 8.75195312 134.52242187 8.1875 135.4375 C7.27003425 136.99953093 6.35336419 138.56202949 5.4375 140.125 C2.41615081 145.18456094 -0.8668719 150.05786448 -4.20996094 154.90893555 C-7.16434878 159.255856 -9.54120423 163.69603925 -11.8125 168.4375 C-12.4725 168.4375 -13.1325 168.4375 -13.8125 168.4375 C-14.4725 170.4175 -15.1325 172.3975 -15.8125 174.4375 C-16.4725 174.4375 -17.1325 174.4375 -17.8125 174.4375 C-17.93939209 175.0262793 -18.06628418 175.61505859 -18.19702148 176.22167969 C-19.15668863 179.67663366 -21.06886978 182.61801444 -22.875 185.6875 C-23.25205078 186.3371875 -23.62910156 186.986875 -24.01757812 187.65625 C-24.94484115 189.25255091 -25.87808456 190.84537529 -26.8125 192.4375 C-27.4725 192.4375 -28.1325 192.4375 -28.8125 192.4375 C-28.8125 193.4275 -28.8125 194.4175 -28.8125 195.4375 C-27.95774078 195.42861755 -27.10298157 195.41973511 -26.22232056 195.4105835 C-18.13161206 195.3301364 -10.04103964 195.2693834 -1.95002174 195.23025131 C2.20878665 195.20945608 6.36726208 195.18128797 10.52587891 195.13574219 C14.54594784 195.09199384 18.56569831 195.06830239 22.58598709 195.05799103 C24.1128706 195.05065125 25.63973845 195.03631945 27.16648483 195.01457977 C35.9004649 194.89526232 43.33090893 195.26388501 51.1875 199.4375 C52.21875 199.97375 53.25 200.51 54.3125 201.0625 C54.93125 201.51625 55.55 201.97 56.1875 202.4375 C56.1875 203.0975 56.1875 203.7575 56.1875 204.4375 C57.1775 204.7675 58.1675 205.0975 59.1875 205.4375 C64.70382521 212.51187126 67.69865653 220.08628238 67 229.0625 C65.83569502 236.84709725 62.18977263 243.97877631 56.25 249.1875 C53.52263636 251.19127737 51.316193 252.27284271 48.1875 253.4375 C48.15011719 254.68402344 48.11273437 255.93054688 48.07421875 257.21484375 C47.11258912 284.00271924 41.12540704 311.22116066 27.1875 334.4375 C26.6409375 335.39269531 26.094375 336.34789062 25.53125 337.33203125 C17.41791324 351.47699337 17.41791324 351.47699337 14.1875 355.4375 C13.5275 355.4375 12.8675 355.4375 12.1875 355.4375 C11.93613281 355.99695313 11.68476562 356.55640625 11.42578125 357.1328125 C9.99506377 359.79566208 8.28396973 361.96917578 6.375 364.3125 C5.30572266 365.62541016 5.30572266 365.62541016 4.21484375 366.96484375 C3.54582031 367.78082031 2.87679688 368.59679687 2.1875 369.4375 C1.69378906 370.05753906 1.20007813 370.67757813 0.69140625 371.31640625 C-1.56433997 374.12027772 -3.74004951 376.53046176 -6.8125 378.4375 C-7.4725 378.4375 -8.1325 378.4375 -8.8125 378.4375 C-9.1425 379.4275 -9.4725 380.4175 -9.8125 381.4375 C-10.4725 381.4375 -11.1325 381.4375 -11.8125 381.4375 C-11.8125 382.0975 -11.8125 382.7575 -11.8125 383.4375 C-13.2734375 384.7265625 -13.2734375 384.7265625 -15.1875 386.0625 C-15.81398438 386.50851562 -16.44046875 386.95453125 -17.0859375 387.4140625 C-18.8125 388.4375 -18.8125 388.4375 -20.8125 388.4375 C-20.8125 389.0975 -20.8125 389.7575 -20.8125 390.4375 C-22.90841383 391.97470481 -24.98794427 393.37534822 -27.1875 394.75 C-27.81930176 395.15081787 -28.45110352 395.55163574 -29.10205078 395.96459961 C-34.17352749 399.13828378 -39.37185324 401.94282556 -44.8125 404.4375 C-43.94109375 404.44007813 -43.0696875 404.44265625 -42.171875 404.4453125 C-32.28704532 404.76624853 -24.02059265 406.81292275 -16.4765625 413.51171875 C-14.8125 415.4375 -14.8125 415.4375 -14.8125 417.4375 C-13.8225 417.7675 -12.8325 418.0975 -11.8125 418.4375 C-6.17204121 425.8829056 -6.54585537 434.54934583 -6.8125 443.4375 C-6.20253174 443.41655273 -5.59256348 443.39560547 -4.96411133 443.37402344 C-2.18457706 443.29057139 0.5946932 443.23874989 3.375 443.1875 C4.33470703 443.15398437 5.29441406 443.12046875 6.28320312 443.0859375 C13.44534723 442.98680748 13.44534723 442.98680748 17.30078125 445.328125 C19.5403648 447.83200723 20.1177065 448.91404871 20.5625 452.25 C20.1875 455.4375 20.1875 455.4375 18.38051605 458.09703636 C13.63852217 461.57289244 9.46622966 461.13070735 3.72424316 461.07241821 C2.55151934 461.08021817 1.37879552 461.08801812 0.17053461 461.09605443 C-3.08108601 461.11254883 -6.33177357 461.10661185 -9.58337092 461.09112334 C-13.09130115 461.07981512 -16.59910478 461.09726984 -20.10700989 461.11102295 C-26.97754148 461.13326573 -33.8478001 461.12844967 -40.71834242 461.11395974 C-46.30172761 461.10267154 -51.88503625 461.10113478 -57.46842957 461.10657883 C-58.66004098 461.10772807 -58.66004098 461.10772807 -59.87572536 461.10890054 C-61.48950806 461.11049915 -63.10329073 461.11212022 -64.71707338 461.1137635 C-79.85245898 461.12802404 -94.9876932 461.11162353 -110.12305397 461.08476166 C-123.11222247 461.06242257 -136.10116756 461.06630262 -149.09033203 461.08935547 C-164.17124247 461.11610814 -179.25202021 461.12665071 -194.33295107 461.11129415 C-195.94082417 461.10970139 -197.54869729 461.10812954 -199.15657043 461.10657883 C-199.94769158 461.10580745 -200.73881273 461.10503607 -201.55390725 461.10424132 C-207.13111927 461.09992271 -212.70824717 461.10721432 -218.28544617 461.11897659 C-225.08150114 461.13299425 -231.87726733 461.12921739 -238.67328918 461.10257287 C-242.14136136 461.08942443 -245.60895194 461.08429899 -249.07702065 461.10081863 C-252.8349127 461.11442713 -256.59143879 461.09741191 -260.34924316 461.07241821 C-261.44797052 461.08357182 -262.54669787 461.09472543 -263.67872 461.10621703 C-271.06523101 461.01053834 -271.06523101 461.01053834 -274.96645355 458.01891136 C-277.8125 454.03915416 -277.8125 454.03915416 -277.8125 451.4375 C-276.25275604 447.53814011 -275.34521727 445.79264485 -271.8125 443.4375 C-269.91137695 443.21044922 -269.91137695 443.21044922 -267.80078125 443.2421875 C-267.04345703 443.24863281 -266.28613281 443.25507812 -265.50585938 443.26171875 C-264.72017578 443.27847656 -263.93449219 443.29523438 -263.125 443.3125 C-262.32771484 443.32152344 -261.53042969 443.33054687 -260.70898438 443.33984375 C-258.743361 443.36338415 -256.77789225 443.39925453 -254.8125 443.4375 C-254.83570313 442.74785156 -254.85890625 442.05820312 -254.8828125 441.34765625 C-255.00441174 435.01581021 -254.41913625 429.56280071 -252.8125 423.4375 C-252.1525 423.4375 -251.4925 423.4375 -250.8125 423.4375 C-250.71582031 422.86128906 -250.61914062 422.28507812 -250.51953125 421.69140625 C-249.66268765 418.95992141 -248.40941916 417.49703114 -246.5 415.375 C-245.90574219 414.70339844 -245.31148438 414.03179688 -244.69921875 413.33984375 C-236.89963682 405.47566901 -227.44249344 404.91396029 -216.8125 404.4375 C-217.44414062 404.10878906 -218.07578125 403.78007813 -218.7265625 403.44140625 C-224.45352164 400.39638042 -230.02120892 397.15506265 -235.5 393.6875 C-236.12406738 393.29892822 -236.74813477 392.91035645 -237.39111328 392.51000977 C-238.90188532 391.54121399 -240.36288267 390.49561484 -241.8125 389.4375 C-241.8125 388.7775 -241.8125 388.1175 -241.8125 387.4375 C-242.8025 387.4375 -243.7925 387.4375 -244.8125 387.4375 C-246.00360151 386.31446143 -247.18459434 385.17824675 -248.3046875 383.984375 C-249.99444847 382.25083784 -251.78504134 380.69798427 -253.625 379.125 C-275.61654518 359.97505897 -290.84594336 335.63966883 -300.8125 308.4375 C-301.25464844 307.24382812 -301.69679688 306.05015625 -302.15234375 304.8203125 C-307.05878325 290.47382375 -309.84349448 274.91364613 -310 259.75 C-310.17908177 256.3153034 -310.24986734 255.00364181 -312.69140625 252.546875 C-315.03442698 250.96735916 -315.03442698 250.96735916 -317.5234375 249.6953125 C-322.61585945 246.89708747 -326.57301488 241.19869624 -328.37890625 235.71875 C-328.96299678 232.64569713 -328.98318844 229.68945024 -329 226.5625 C-329.01417969 225.36882812 -329.02835937 224.17515625 -329.04296875 222.9453125 C-328.66077431 217.12818356 -326.49106587 212.55112575 -323.8125 207.4375 C-323.1525 207.4375 -322.4925 207.4375 -321.8125 207.4375 C-321.4825 206.4475 -321.1525 205.4575 -320.8125 204.4375 C-319.28125 202.9375 -319.28125 202.9375 -317.3125 201.4375 C-316.6834375 200.9425 -316.054375 200.4475 -315.40625 199.9375 C-307.67040218 195.46375668 -300.24354814 195.02604813 -291.45898438 195.14794922 C-289.64990349 195.15434669 -289.64990349 195.15434669 -287.80427551 195.16087341 C-284.52110036 195.17380613 -281.23826905 195.19937309 -277.9552021 195.22777319 C-274.5041239 195.25205141 -271.05307909 195.252082 -267.60192871 195.25247192 C-255.86863623 195.25741256 -244.13578605 195.286608 -232.40283203 195.37890625 C-225.90916757 195.42974131 -219.41623344 195.44825776 -212.92238283 195.4313184 C-209.49368723 195.42382024 -206.06685701 195.43296608 -202.63847351 195.48257065 C-198.81312228 195.53075007 -194.99153493 195.52323915 -191.16601562 195.50341797 C-190.0436702 195.53113785 -188.92132477 195.55885773 -187.76496887 195.5874176 C-181.33843352 195.48683992 -178.24311761 194.51899352 -173.66540527 189.87088013 C-172.61444798 188.63233874 -172.61444798 188.63233874 -171.54225922 187.36877632 C-170.97143867 186.73145514 -170.40061813 186.09413395 -169.8125 185.4375 C-169.1525 185.4375 -168.4925 185.4375 -167.8125 185.4375 C-167.8125 184.7775 -167.8125 184.1175 -167.8125 183.4375 C-166.15034732 182.09854368 -164.48286393 180.76619858 -162.8125 179.4375 C-162.214375 178.674375 -161.61625 177.91125 -161 177.125 C-159.07942563 174.7654372 -157.24272415 173.017785 -154.9375 171.0625 C-151.65427789 168.26658359 -148.91634428 165.31706373 -146.1796875 161.99609375 C-144.28559177 159.83682462 -142.08434731 158.18507486 -139.8125 156.4375 C-138.4821875 155.07625 -138.4821875 155.07625 -137.125 153.6875 C-134.8125 151.4375 -134.8125 151.4375 -132.8125 151.4375 C-132.4825 150.4475 -132.1525 149.4575 -131.8125 148.4375 C-131.1525 148.4375 -130.4925 148.4375 -129.8125 148.4375 C-129.4825 147.4475 -129.1525 146.4575 -128.8125 145.4375 C-128.1525 145.4375 -127.4925 145.4375 -126.8125 145.4375 C-126.4825 144.4475 -126.1525 143.4575 -125.8125 142.4375 C-125.1525 142.4375 -124.4925 142.4375 -123.8125 142.4375 C-123.4825 141.4475 -123.1525 140.4575 -122.8125 139.4375 C-122.1525 139.4375 -121.4925 139.4375 -120.8125 139.4375 C-120.4825 138.4475 -120.1525 137.4575 -119.8125 136.4375 C-119.1525 136.4375 -118.4925 136.4375 -117.8125 136.4375 C-117.4825 135.4475 -117.1525 134.4575 -116.8125 133.4375 C-116.1525 133.4375 -115.4925 133.4375 -114.8125 133.4375 C-114.4825 132.4475 -114.1525 131.4575 -113.8125 130.4375 C-113.1525 130.4375 -112.4925 130.4375 -111.8125 130.4375 C-111.4825 129.4475 -111.1525 128.4575 -110.8125 127.4375 C-110.1525 127.4375 -109.4925 127.4375 -108.8125 127.4375 C-108.4825 126.4475 -108.1525 125.4575 -107.8125 124.4375 C-106.45703125 123.10546875 -106.45703125 123.10546875 -104.625 121.625 C-100.45925752 118.10475996 -96.6402717 114.31508865 -92.8125 110.4375 C-88.65060547 106.23085391 -84.46933609 102.17054345 -79.9453125 98.3515625 C-76.29825946 95.07856618 -72.89224904 91.55679296 -69.46655273 88.05444336 C-66.397715 84.93700518 -63.25105245 82.15341445 -59.8125 79.4375 C-59.1525 78.6125 -58.4925 77.7875 -57.8125 76.9375 C-55.8125 74.4375 -55.8125 74.4375 -53.375 72.5 C-50.14566166 69.90077646 -47.9205376 68.06068963 -45.8125 64.4375 C-46.23654336 61.73014626 -47.08818915 59.30008352 -47.9609375 56.703125 C-50.80091027 45.81222024 -49.62099036 33.10269083 -44.125 23.3125 C-41.2729251 18.82766478 -38.02904116 14.71944699 -33.8125 11.4375 C-33.1525 11.4375 -32.4925 11.4375 -31.8125 11.4375 C-31.8125 10.7775 -31.8125 10.1175 -31.8125 9.4375 C-30.8225 9.4375 -29.8325 9.4375 -28.8125 9.4375 C-28.8125 8.7775 -28.8125 8.1175 -28.8125 7.4375 C-19.36692057 2.36487401 -10.76174669 -0.11946961 0 0 Z M0.1875 19.4375 C0.1875 20.0975 0.1875 20.7575 0.1875 21.4375 C-0.8334375 21.499375 -0.8334375 21.499375 -1.875 21.5625 C-5.9985808 22.79080066 -8.99240529 25.2004558 -11.8125 28.4375 C-12.54566227 30.54676337 -12.54566227 30.54676337 -12.8125 32.4375 C-13.3075 31.4475 -13.3075 31.4475 -13.8125 30.4375 C-17.89092654 30.19759256 -21.07852153 30.74023706 -24.8125 32.4375 C-25.88004834 34.37150917 -25.88004834 34.37150917 -25.8125 36.4375 C-25.3175 37.4275 -25.3175 37.4275 -24.8125 38.4375 C-26.1325 38.7675 -27.4525 39.0975 -28.8125 39.4375 C-27.4925 39.4375 -26.1725 39.4375 -24.8125 39.4375 C-25.0909375 41.2628125 -25.0909375 41.2628125 -25.375 43.125 C-25.80243182 46.46727939 -25.73508883 49.15718417 -24.8125 52.4375 C-23.1625 52.4375 -21.5125 52.4375 -19.8125 52.4375 C-19.8125 51.4475 -19.8125 50.4575 -19.8125 49.4375 C-19.1525 49.4375 -18.4925 49.4375 -17.8125 49.4375 C-17.68875 50.4275 -17.565 51.4175 -17.4375 52.4375 C-16.86055273 56.52630024 -15.86286346 60.44611887 -14.8125 64.4375 C-15.740625 64.52 -16.66875 64.6025 -17.625 64.6875 C-20.87039068 65.14824019 -20.87039068 65.14824019 -22.6875 67.375 C-23.97211738 69.33857048 -23.97211738 69.33857048 -23.8125 71.4375 C-24.4725 71.4375 -25.1325 71.4375 -25.8125 71.4375 C-27.15145632 73.09965268 -28.48380142 74.76713607 -29.8125 76.4375 C-31.47916667 77.77083333 -33.14583333 79.10416667 -34.8125 80.4375 C-35.4725 81.2625 -36.1325 82.0875 -36.8125 82.9375 C-38.91569635 85.56649543 -41.19149543 87.34069635 -43.8125 89.4375 C-44.4725 90.2625 -45.1325 91.0875 -45.8125 91.9375 C-47.8125 94.4375 -47.8125 94.4375 -50.5625 96.625 C-51.305 97.223125 -52.0475 97.82125 -52.8125 98.4375 C-52.8125 99.0975 -52.8125 99.7575 -52.8125 100.4375 C-53.369375 100.685 -53.92625 100.9325 -54.5 101.1875 C-60.06574366 104.19601009 -64.77994524 108.33983572 -66.8125 114.4375 C-67.8025 114.4375 -68.7925 114.4375 -69.8125 114.4375 C-70.039375 115.035625 -70.26625 115.63375 -70.5 116.25 C-72.14557014 118.9926169 -74.08285797 119.85718093 -76.8125 121.4375 C-76.8125 122.0975 -76.8125 122.7575 -76.8125 123.4375 C-77.8025 123.9325 -77.8025 123.9325 -78.8125 124.4375 C-77.8225 125.4275 -76.8325 126.4175 -75.8125 127.4375 C-77.1325 127.4375 -78.4525 127.4375 -79.8125 127.4375 C-80.1425 126.7775 -80.4725 126.1175 -80.8125 125.4375 C-83.37499975 127.74982422 -83.37499975 127.74982422 -85.8125 130.4375 C-85.8125 131.4275 -85.8125 132.4175 -85.8125 133.4375 C-86.8025 133.7675 -87.7925 134.0975 -88.8125 134.4375 C-89.1425 134.7675 -89.4725 135.0975 -89.8125 135.4375 C-90.4725 136.0975 -91.1325 136.7575 -91.8125 137.4375 C-91.51950977 139.11172986 -91.18559899 140.77928227 -90.8125 142.4375 C-91.1425 143.0975 -91.4725 143.7575 -91.8125 144.4375 C-93.1325 144.4375 -94.4525 144.4375 -95.8125 144.4375 C-95.8125 143.7775 -95.8125 143.1175 -95.8125 142.4375 C-96.8025 142.7675 -97.7925 143.0975 -98.8125 143.4375 C-98.1525 145.0875 -97.4925 146.7375 -96.8125 148.4375 C-97.4621875 149.16066406 -97.4621875 149.16066406 -98.125 149.8984375 C-98.681875 150.53007813 -99.23875 151.16171875 -99.8125 151.8125 C-100.369375 152.43898438 -100.92625 153.06546875 -101.5 153.7109375 C-103.01422487 155.34139833 -103.01422487 155.34139833 -102.8125 157.4375 C-103.369375 157.664375 -103.92625 157.89125 -104.5 158.125 C-107.44496684 159.79646766 -109.49406544 161.99026352 -111.8125 164.4375 C-111.4825 163.1175 -111.1525 161.7975 -110.8125 160.4375 C-110.1525 160.4375 -109.4925 160.4375 -108.8125 160.4375 C-108.8125 159.4475 -108.8125 158.4575 -108.8125 157.4375 C-112.60036597 157.9635925 -114.98402224 158.81853911 -117.8125 161.4375 C-117.8125 162.0975 -117.8125 162.7575 -117.8125 163.4375 C-118.8025 163.4375 -119.7925 163.4375 -120.8125 163.4375 C-120.8125 165.0875 -120.8125 166.7375 -120.8125 168.4375 C-121.740625 168.540625 -122.66875 168.64375 -123.625 168.75 C-126.84504358 169.4445192 -127.83829865 169.91490939 -129.8125 172.4375 C-129.4825 173.0975 -129.1525 173.7575 -128.8125 174.4375 C-130.1325 174.7675 -131.4525 175.0975 -132.8125 175.4375 C-132.8125 177.4175 -132.8125 179.3975 -132.8125 181.4375 C-134.4625 181.1075 -136.1125 180.7775 -137.8125 180.4375 C-138.1425 181.4275 -138.4725 182.4175 -138.8125 183.4375 C-134.19742226 184.47964691 -134.19742226 184.47964691 -129.8125 183.4375 C-130.8025 184.613125 -130.8025 184.613125 -131.8125 185.8125 C-134.01451441 188.15262812 -134.01451441 188.15262812 -133.8125 190.4375 C-134.4725 190.4375 -135.1325 190.4375 -135.8125 190.4375 C-135.8125 191.0975 -135.8125 191.7575 -135.8125 192.4375 C-136.8025 192.7675 -137.7925 193.0975 -138.8125 193.4375 C-138.8125 194.0975 -138.8125 194.7575 -138.8125 195.4375 C-117.0325 195.4375 -95.2525 195.4375 -72.8125 195.4375 C-72.4825 194.7775 -72.1525 194.1175 -71.8125 193.4375 C-70.1625 193.4375 -68.5125 193.4375 -66.8125 193.4375 C-66.4825 194.0975 -66.1525 194.7575 -65.8125 195.4375 C-65.8125 194.7775 -65.8125 194.1175 -65.8125 193.4375 C-61.8525 193.4375 -57.8925 193.4375 -53.8125 193.4375 C-54.4725 193.1075 -55.1325 192.7775 -55.8125 192.4375 C-55.8125 190.7875 -55.8125 189.1375 -55.8125 187.4375 C-53.5025 187.4375 -51.1925 187.4375 -48.8125 187.4375 C-49.3075 183.9725 -49.3075 183.9725 -49.8125 180.4375 C-49.02875 180.64375 -48.245 180.85 -47.4375 181.0625 C-46.57125 181.18625 -45.705 181.31 -44.8125 181.4375 C-42.40128141 179.48116025 -42.40128141 179.48116025 -42.6875 175.8125 C-42.72875 174.69875 -42.77 173.585 -42.8125 172.4375 C-41.8225 172.1075 -40.8325 171.7775 -39.8125 171.4375 C-39.8125 170.7775 -39.8125 170.1175 -39.8125 169.4375 C-38.1625 169.1075 -36.5125 168.7775 -34.8125 168.4375 C-35.4725 168.1075 -36.1325 167.7775 -36.8125 167.4375 C-36.8125 166.4475 -36.8125 165.4575 -36.8125 164.4375 C-35.1625 164.1075 -33.5125 163.7775 -31.8125 163.4375 C-31.8125 161.7875 -31.8125 160.1375 -31.8125 158.4375 C-31.1525 158.1075 -30.4925 157.7775 -29.8125 157.4375 C-29.4825 156.7775 -29.1525 156.1175 -28.8125 155.4375 C-29.8025 154.4475 -30.7925 153.4575 -31.8125 152.4375 C-28.3475 151.4475 -28.3475 151.4475 -24.8125 150.4375 C-24.8125 146.8075 -24.8125 143.1775 -24.8125 139.4375 C-23.4925 139.4375 -22.1725 139.4375 -20.8125 139.4375 C-20.8125 140.4275 -20.8125 141.4175 -20.8125 142.4375 C-19.8225 142.1075 -18.8325 141.7775 -17.8125 141.4375 C-17.8125 138.59782769 -18.21517181 136.20014289 -18.8125 133.4375 C-18.1525 133.4375 -17.4925 133.4375 -16.8125 133.4375 C-16.4825 134.0975 -16.1525 134.7575 -15.8125 135.4375 C-15.8125 134.7775 -15.8125 134.1175 -15.8125 133.4375 C-14.4925 132.7775 -13.1725 132.1175 -11.8125 131.4375 C-12.4725 131.1075 -13.1325 130.7775 -13.8125 130.4375 C-13.1525 128.1275 -12.4925 125.8175 -11.8125 123.4375 C-10.8225 123.4375 -9.8325 123.4375 -8.8125 123.4375 C-8.4825 121.1275 -8.1525 118.8175 -7.8125 116.4375 C-7.1525 116.4375 -6.4925 116.4375 -5.8125 116.4375 C-5.8125 115.7775 -5.8125 115.1175 -5.8125 114.4375 C-5.1525 114.4375 -4.4925 114.4375 -3.8125 114.4375 C-4.8025 116.4175 -4.8025 116.4175 -5.8125 118.4375 C-2.66148578 117.7625645 -2.66148578 117.7625645 -1.5625 115.1875 C-0.73549074 112.15513271 -0.95855921 110.42629276 -1.8125 107.4375 C-1.1525 107.1075 -0.4925 106.7775 0.1875 106.4375 C-0.4725 106.4375 -1.1325 106.4375 -1.8125 106.4375 C-1.4825 105.7775 -1.1525 105.1175 -0.8125 104.4375 C1.75 103.8125 1.75 103.8125 4.1875 103.4375 C4.5175 102.4475 4.8475 101.4575 5.1875 100.4375 C4.8575 99.7775 4.5275 99.1175 4.1875 98.4375 C4.8475 98.1075 5.5075 97.7775 6.1875 97.4375 C3.5475 97.4375 0.9075 97.4375 -1.8125 97.4375 C-1.8125 94.30849787 -1.38798683 93.06331138 0.1875 90.4375 C0.8475 90.1075 1.5075 89.7775 2.1875 89.4375 C3.09093684 87.55486119 3.09093684 87.55486119 3.8125 85.375 C4.07289063 84.64152344 4.33328125 83.90804687 4.6015625 83.15234375 C4.79492188 82.58644531 4.98828125 82.02054688 5.1875 81.4375 C14.19708466 81.13718051 14.19708466 81.13718051 17.1875 83.4375 C18.4375 85.5625 18.4375 85.5625 19.1875 87.4375 C22.6525 86.9425 22.6525 86.9425 26.1875 86.4375 C25.8575 87.4275 25.5275 88.4175 25.1875 89.4375 C26.5075 89.4375 27.8275 89.4375 29.1875 89.4375 C29.1875 90.0975 29.1875 90.7575 29.1875 91.4375 C28.1975 91.9325 28.1975 91.9325 27.1875 92.4375 C34.85977561 93.7517324 41.25796417 93.47972923 48.1875 89.4375 C48.1875 88.7775 48.1875 88.1175 48.1875 87.4375 C47.42824219 87.23253906 46.66898438 87.02757812 45.88671875 86.81640625 C44.89285156 86.54699219 43.89898438 86.27757812 42.875 86 C41.88886719 85.73316406 40.90273438 85.46632813 39.88671875 85.19140625 C37.97232474 84.65670575 36.07316385 84.06605462 34.1875 83.4375 C33.8575 84.0975 33.5275 84.7575 33.1875 85.4375 C32.5275 85.4375 31.8675 85.4375 31.1875 85.4375 C31.1875 84.7775 31.1875 84.1175 31.1875 83.4375 C28.97947732 80.72932272 28.97947732 80.72932272 26.1875 78.4375 C24.8675 78.4375 23.5475 78.4375 22.1875 78.4375 C22.09339844 77.84839844 21.99929688 77.25929688 21.90234375 76.65234375 C21.02919609 73.94701741 19.84916227 72.88968246 17.75 71 C14.20983551 67.56865204 12.31409697 65.20856697 12.08203125 60.12890625 C12.06459302 57.8933256 12.09990498 55.67117302 12.1875 53.4375 C21.41826923 52.05288462 21.41826923 52.05288462 24.1875 53.4375 C25.375 55.375 25.375 55.375 26.1875 57.4375 C26.5175 58.0975 26.8475 58.7575 27.1875 59.4375 C27.8475 59.4375 28.5075 59.4375 29.1875 59.4375 C29.5175 60.4275 29.8475 61.4175 30.1875 62.4375 C34.15527579 67.32980607 41.62064124 70.90002813 47.75390625 71.82421875 C50.12121386 71.85128979 50.12121386 71.85128979 53.1875 71.4375 C54.30614737 60.42503809 50.69042543 51.15842584 43.875 42.5625 C33.71763535 30.99485663 21.6975221 21.88201435 6.1875 19.4375 C2.81180204 19.26780819 2.81180204 19.26780819 0.1875 19.4375 Z M23.1875 86.4375 C23.1875 89.4375 23.1875 89.4375 23.1875 89.4375 Z M-11.8125 124.4375 C-10.8125 126.4375 -10.8125 126.4375 -10.8125 126.4375 Z M-93.8125 139.4375 C-94.1425 140.4275 -94.4725 141.4175 -94.8125 142.4375 C-93.8225 142.4375 -92.8325 142.4375 -91.8125 142.4375 C-92.4725 141.4475 -93.1325 140.4575 -93.8125 139.4375 Z M-20.8125 143.4375 C-19.8125 145.4375 -19.8125 145.4375 -19.8125 145.4375 Z M-99.8125 145.4375 C-101.2975 147.4175 -101.2975 147.4175 -102.8125 149.4375 C-102.1525 149.4375 -101.4925 149.4375 -100.8125 149.4375 C-100.4825 150.0975 -100.1525 150.7575 -99.8125 151.4375 C-98.8225 150.1175 -97.8325 148.7975 -96.8125 147.4375 C-97.4725 147.4375 -98.1325 147.4375 -98.8125 147.4375 C-99.1425 146.7775 -99.4725 146.1175 -99.8125 145.4375 Z M-23.8125 145.4375 C-22.8125 147.4375 -22.8125 147.4375 -22.8125 147.4375 Z M-105.8125 151.4375 C-104.8125 154.4375 -104.8125 154.4375 -104.8125 154.4375 Z M-106.8125 156.4375 C-107.1425 157.0975 -107.4725 157.7575 -107.8125 158.4375 C-107.1525 158.4375 -106.4925 158.4375 -105.8125 158.4375 C-106.1425 157.7775 -106.4725 157.1175 -106.8125 156.4375 Z M-138.8125 186.4375 C-138.8125 187.7575 -138.8125 189.0775 -138.8125 190.4375 C-137.8225 190.1075 -136.8325 189.7775 -135.8125 189.4375 C-136.1425 188.4475 -136.4725 187.4575 -136.8125 186.4375 C-137.4725 186.4375 -138.1325 186.4375 -138.8125 186.4375 Z M-266.8125 213.4375 C-266.8125 214.0975 -266.8125 214.7575 -266.8125 215.4375 C-267.988125 215.80875 -267.988125 215.80875 -269.1875 216.1875 C-272.13567108 217.59139099 -272.7149777 218.44425737 -273.8125 221.4375 C-274.8025 221.1075 -275.7925 220.7775 -276.8125 220.4375 C-276.8125 219.7775 -276.8125 219.1175 -276.8125 218.4375 C-276.1525 218.4375 -275.4925 218.4375 -274.8125 218.4375 C-274.8125 217.7775 -274.8125 217.1175 -274.8125 216.4375 C-277.1225 216.4375 -279.4325 216.4375 -281.8125 216.4375 C-283.14582095 219.1041419 -282.48352033 220.60430303 -281.8125 223.4375 C-282.4725 223.4375 -283.1325 223.4375 -283.8125 223.4375 C-283.8125 224.0975 -283.8125 224.7575 -283.8125 225.4375 C-283.1525 225.4375 -282.4925 225.4375 -281.8125 225.4375 C-281.8125 226.0975 -281.8125 226.7575 -281.8125 227.4375 C-282.8025 227.9325 -282.8025 227.9325 -283.8125 228.4375 C-282.8534375 229.365625 -282.8534375 229.365625 -281.875 230.3125 C-279.8125 232.4375 -279.8125 232.4375 -278.8125 234.4375 C-279.4725 234.4375 -280.1325 234.4375 -280.8125 234.4375 C-280.8125 235.0975 -280.8125 235.7575 -280.8125 236.4375 C-278.26108189 237.71320906 -276.47466512 237.56522477 -273.61684036 237.56892776 C-271.95483782 237.57468948 -271.95483782 237.57468948 -270.25925946 237.5805676 C-268.41815473 237.57926787 -268.41815473 237.57926787 -266.53985596 237.57794189 C-265.24381085 237.58091302 -263.94776575 237.58388414 -262.61244655 237.5869453 C-259.00284451 237.59503411 -255.39326233 237.59680591 -251.78365231 237.59754276 C-247.8953237 237.59939008 -244.00700548 237.60693582 -240.11868286 237.61367798 C-231.61040674 237.6272756 -223.10213532 237.63328836 -214.59385014 237.63768864 C-209.28339856 237.64044888 -203.97294881 237.64468586 -198.66249847 237.64919281 C-183.96598551 237.66138779 -169.269474 237.67168636 -154.57295609 237.6750679 C-153.63183532 237.67528747 -152.69071456 237.67550703 -151.72107498 237.67573325 C-150.30596823 237.67606067 -150.30596823 237.67606067 -148.86227345 237.6763947 C-146.95050001 237.67683817 -145.03872657 237.67728473 -143.12695312 237.67773438 C-141.70448718 237.67806652 -141.70448718 237.67806652 -140.25328454 237.67840537 C-124.88650979 237.68235355 -109.51978245 237.69980714 -94.15302601 237.7230939 C-78.38473879 237.74679666 -62.61647537 237.75926928 -46.84817004 237.76043582 C-37.99143821 237.76135323 -29.13476813 237.76712214 -20.27805328 237.78525543 C-12.73617557 237.80064199 -5.19437869 237.80578548 2.34751174 237.79751733 C6.19633631 237.79360556 10.04499802 237.79456594 13.89380264 237.80857468 C18.06496039 237.82361798 22.23574978 237.81546265 26.40692139 237.80499268 C27.62540166 237.81304908 28.84388193 237.82110548 30.09928584 237.82940602 C38.08361859 237.83426644 38.08361859 237.83426644 45.1875 234.4375 C47.84962879 230.44430682 48.98266218 227.2084731 48.1875 222.4375 C45.01401553 217.533024 41.88009361 215.06256349 36.1875 213.4375 C32.07106847 213.00815386 27.97825806 213.04554365 23.84266663 213.07673645 C22.59936929 213.07417318 21.35607195 213.0716099 20.07509893 213.06896895 C16.63604506 213.06488981 13.19750622 213.07423484 9.75851476 213.08930314 C6.04558364 213.10228168 2.33266788 213.09787276 -1.38027954 213.09559631 C-7.8092162 213.09402473 -14.23806137 213.10342193 -20.66697502 213.12030983 C-29.96204246 213.14471082 -39.25706576 213.15250622 -48.55216176 213.1562738 C-63.63351376 213.16283656 -78.71481703 213.18279296 -93.79614258 213.21118164 C-108.4445776 213.23872675 -123.09299938 213.25995812 -137.74145508 213.27270508 C-138.64467567 213.27349325 -139.54789627 213.27428142 -140.47848719 213.27509347 C-145.00976625 213.27900864 -149.54104541 213.28279975 -154.07232463 213.28652918 C-191.65241749 213.31761962 -229.23245495 213.37045065 -266.8125 213.4375 Z M-301.8125 214.4375 C-300.8125 216.4375 -300.8125 216.4375 -300.8125 216.4375 Z M-308.3125 218.6875 C-310.13173475 221.50068188 -310.13173475 221.50068188 -309.8125 225.4375 C-309.1525 225.4375 -308.4925 225.4375 -307.8125 225.4375 C-307.8125 226.0975 -307.8125 226.7575 -307.8125 227.4375 C-308.8025 227.9325 -308.8025 227.9325 -309.8125 228.4375 C-309.8125 229.0975 -309.8125 229.7575 -309.8125 230.4375 C-308.8225 230.7675 -307.8325 231.0975 -306.8125 231.4375 C-306.125 233.5 -306.125 233.5 -305.8125 235.4375 C-304.1625 235.1075 -302.5125 234.7775 -300.8125 234.4375 C-299.81594843 231.4478453 -299.76660177 229.66363188 -299.875 226.5625 C-299.92557129 222.71908166 -299.65816494 219.89812176 -297.8125 216.4375 C-303.62581184 215.74998438 -303.62581184 215.74998438 -308.3125 218.6875 Z M-285.8125 222.4375 C-284.8125 225.4375 -284.8125 225.4375 -284.8125 225.4375 Z M-303.8125 236.4375 C-303.8125 236.7675 -303.8125 237.0975 -303.8125 237.4375 C-301.1725 237.4375 -298.5325 237.4375 -295.8125 237.4375 C-295.8125 237.1075 -295.8125 236.7775 -295.8125 236.4375 C-298.4525 236.4375 -301.0925 236.4375 -303.8125 236.4375 Z M-291.8125 254.4375 C-291.8125 255.4275 -291.8125 256.4175 -291.8125 257.4375 C-291.1525 257.4375 -290.4925 257.4375 -289.8125 257.4375 C-289.8125 258.0975 -289.8125 258.7575 -289.8125 259.4375 C-290.4725 259.4375 -291.1325 259.4375 -291.8125 259.4375 C-291.1525 264.7175 -290.4925 269.9975 -289.8125 275.4375 C-286.5125 275.4375 -283.2125 275.4375 -279.8125 275.4375 C-280.1425 268.5075 -280.4725 261.5775 -280.8125 254.4375 C-284.4425 254.4375 -288.0725 254.4375 -291.8125 254.4375 Z M-265.8125 254.4375 C-266.8605475 276.33004768 -260.30010327 300.10809255 -246.9921875 317.796875 C-245.44053768 319.95479859 -244.20939204 322.2744592 -242.91796875 324.59375 C-240.84277363 328.05485281 -238.5294244 331.44888317 -235.8125 334.4375 C-235.1525 334.4375 -234.4925 334.4375 -233.8125 334.4375 C-233.57660156 335.00210938 -233.34070313 335.56671875 -233.09765625 336.1484375 C-231.52015058 338.95821963 -229.57198714 340.83369051 -227.25 343.0625 C-222.90972222 347.24305556 -222.90972222 347.24305556 -221.8125 349.4375 C-220.8225 349.4375 -219.8325 349.4375 -218.8125 349.4375 C-218.4825 350.4275 -218.1525 351.4175 -217.8125 352.4375 C-210.01980905 359.47958149 -201.25007432 363.98180062 -191.8125 368.4375 C-190.20757083 369.31110063 -188.6033337 370.18597462 -187 371.0625 C-175.95168174 376.57758826 -160.13620661 381.4375 -147.8125 381.4375 C-147.503125 382.076875 -147.19375 382.71625 -146.875 383.375 C-145.9779837 385.37360821 -145.9779837 385.37360821 -144.8125 386.4375 C-144.9775 386.994375 -145.1425 387.55125 -145.3125 388.125 C-145.95598652 391.10112516 -145.36508146 393.46737464 -144.8125 396.4375 C-145.81152344 396.293125 -146.81054688 396.14875 -147.83984375 396 C-149.13019531 395.814375 -150.42054688 395.62875 -151.75 395.4375 C-153.03777344 395.251875 -154.32554687 395.06625 -155.65234375 394.875 C-157.72583519 394.56064211 -157.72583519 394.56064211 -159.8125 394.4375 C-163.11215284 394.4375 -164.77324469 393.66940012 -167.8125 392.4375 C-170.32978439 391.71943718 -172.84179561 391.03009612 -175.375 390.375 C-176.03435547 390.20162109 -176.69371094 390.02824219 -177.37304688 389.84960938 C-179.18499935 389.3743133 -180.99868707 388.90564613 -182.8125 388.4375 C-183.96298828 388.10105469 -183.96298828 388.10105469 -185.13671875 387.7578125 C-187.52203648 387.30187764 -188.79299592 388.21137252 -190.8125 389.4375 C-190.8125 388.7775 -190.8125 388.1175 -190.8125 387.4375 C-190.1525 387.1075 -189.4925 386.7775 -188.8125 386.4375 C-192.61677492 384.2361134 -192.61677492 384.2361134 -196.8125 383.4375 C-197.1425 382.7775 -197.4725 382.1175 -197.8125 381.4375 C-199.4625 381.4375 -201.1125 381.4375 -202.8125 381.4375 C-203.1425 380.7775 -203.4725 380.1175 -203.8125 379.4375 C-206.1265622 378.70674352 -208.46078869 378.03611742 -210.8125 377.4375 C-210.4825 378.7575 -210.1525 380.0775 -209.8125 381.4375 C-210.4725 381.4375 -211.1325 381.4375 -211.8125 381.4375 C-211.85375 380.179375 -211.895 378.92125 -211.9375 377.625 C-212.12014489 375.42760474 -212.12014489 375.42760474 -212.8125 373.4375 C-215.73091857 371.35117303 -215.73091857 371.35117303 -218.8125 370.4375 C-218.8125 371.0975 -218.8125 371.7575 -218.8125 372.4375 C-219.4725 372.4375 -220.1325 372.4375 -220.8125 372.4375 C-220.8125 371.7775 -220.8125 371.1175 -220.8125 370.4375 C-221.4725 370.4375 -222.1325 370.4375 -222.8125 370.4375 C-222.3175 368.9525 -222.3175 368.9525 -221.8125 367.4375 C-222.4725 367.4375 -223.1325 367.4375 -223.8125 367.4375 C-224.1425 366.7775 -224.4725 366.1175 -224.8125 365.4375 C-224.8125 366.0975 -224.8125 366.7575 -224.8125 367.4375 C-225.26625 366.9425 -225.72 366.4475 -226.1875 365.9375 C-227.68885519 364.21140663 -227.68885519 364.21140663 -229.8125 364.4375 C-229.3175 362.9525 -229.3175 362.9525 -228.8125 361.4375 C-230.64534443 360.31233915 -230.64534443 360.31233915 -232.8125 359.4375 C-233.8025 359.7675 -234.7925 360.0975 -235.8125 360.4375 C-235.8125 359.1175 -235.8125 357.7975 -235.8125 356.4375 C-237.1037354 354.81264541 -237.1037354 354.81264541 -238.8125 353.4375 C-240.85733171 351.47446156 -242.20807874 349.84413188 -243.8125 347.4375 C-245.16276777 349.56689828 -245.16276777 349.56689828 -243.875 352.5625 C-243.524375 353.51125 -243.17375 354.46 -242.8125 355.4375 C-244.1325 355.1075 -245.4525 354.7775 -246.8125 354.4375 C-246.6475 353.674375 -246.4825 352.91125 -246.3125 352.125 C-245.72104604 349.40153764 -245.72104604 349.40153764 -245.8125 346.4375 C-246.410625 346.2725 -247.00875 346.1075 -247.625 345.9375 C-250.99777798 343.62473796 -251.6456548 340.23858663 -252.8125 336.4375 C-255.2875 336.9325 -255.2875 336.9325 -257.8125 337.4375 C-257.4825 335.4575 -257.1525 333.4775 -256.8125 331.4375 C-257.4725 331.1075 -258.1325 330.7775 -258.8125 330.4375 C-260.2975 330.9325 -260.2975 330.9325 -261.8125 331.4375 C-261.4825 330.4475 -261.1525 329.4575 -260.8125 328.4375 C-261.4725 327.7775 -262.1325 327.1175 -262.8125 326.4375 C-263.8025 326.9325 -263.8025 326.9325 -264.8125 327.4375 C-263.8225 325.7875 -262.8325 324.1375 -261.8125 322.4375 C-262.4725 322.4375 -263.1325 322.4375 -263.8125 322.4375 C-263.4825 321.4475 -263.1525 320.4575 -262.8125 319.4375 C-266.10226808 318.34091064 -267.52553767 318.63796862 -270.8125 319.4375 C-271.1425 320.4275 -271.4725 321.4175 -271.8125 322.4375 C-271.1525 323.4275 -270.4925 324.4175 -269.8125 325.4375 C-270.4725 325.4375 -271.1325 325.4375 -271.8125 325.4375 C-271.18716625 327.96113988 -271.18716625 327.96113988 -269.8125 330.4375 C-267.26474694 331.33136164 -267.26474694 331.33136164 -264.8125 331.4375 C-264.8125 333.4175 -264.8125 335.3975 -264.8125 337.4375 C-263.1625 337.4375 -261.5125 337.4375 -259.8125 337.4375 C-260.01875 338.365625 -260.225 339.29375 -260.4375 340.25 C-261.17942966 343.58923402 -261.17942966 343.58923402 -258.8125 346.4375 C-258.1525 346.4375 -257.4925 346.4375 -256.8125 346.4375 C-256.4825 347.4275 -256.1525 348.4175 -255.8125 349.4375 C-255.1525 348.4475 -254.4925 347.4575 -253.8125 346.4375 C-253.8125 348.4175 -253.8125 350.3975 -253.8125 352.4375 C-252.8225 352.4375 -251.8325 352.4375 -250.8125 352.4375 C-250.8125 353.0975 -250.8125 353.7575 -250.8125 354.4375 C-250.1525 354.4375 -249.4925 354.4375 -248.8125 354.4375 C-248.73 355.035625 -248.6475 355.63375 -248.5625 356.25 C-247.60794128 359.0341296 -246.24117729 359.87061142 -243.8125 361.4375 C-243.8125 360.4475 -243.8125 359.4575 -243.8125 358.4375 C-243.1525 358.4375 -242.4925 358.4375 -241.8125 358.4375 C-242.1425 359.4275 -242.4725 360.4175 -242.8125 361.4375 C-240.14002366 363.78037418 -240.14002366 363.78037418 -236.8125 364.4375 C-236.1525 365.7575 -235.4925 367.0775 -234.8125 368.4375 C-234.1525 368.4375 -233.4925 368.4375 -232.8125 368.4375 C-232.8125 369.0975 -232.8125 369.7575 -232.8125 370.4375 C-231.8225 370.4375 -230.8325 370.4375 -229.8125 370.4375 C-230.3075 371.9225 -230.3075 371.9225 -230.8125 373.4375 C-228.5025 373.4375 -226.1925 373.4375 -223.8125 373.4375 C-223.73 374.015 -223.6475 374.5925 -223.5625 375.1875 C-222.59452213 378.0914336 -221.12555716 379.47490604 -218.8125 381.4375 C-218.1525 381.4375 -217.4925 381.4375 -216.8125 381.4375 C-216.420625 381.911875 -216.02875 382.38625 -215.625 382.875 C-212.94637641 385.18415826 -210.25173968 385.11304343 -206.8125 385.4375 C-206.8125 386.4275 -206.8125 387.4175 -206.8125 388.4375 C-205.4028653 389.13930531 -203.98442359 389.82343958 -202.5625 390.5 C-201.77359375 390.88285156 -200.9846875 391.26570312 -200.171875 391.66015625 C-197.55256478 392.52314091 -196.36394824 392.36795933 -193.8125 391.4375 C-193.8125 392.0975 -193.8125 392.7575 -193.8125 393.4375 C-189.41096436 395.90665414 -185.78936851 396.80408037 -180.8125 397.4375 C-177.875 398.5 -177.875 398.5 -175.8125 399.4375 C-175.8125 398.7775 -175.8125 398.1175 -175.8125 397.4375 C-175.1525 397.4375 -174.4925 397.4375 -173.8125 397.4375 C-173.8125 398.0975 -173.8125 398.7575 -173.8125 399.4375 C-166.10270024 402.97115822 -158.15695844 403.57672455 -149.8125 404.4375 C-149.8125 403.7775 -149.8125 403.1175 -149.8125 402.4375 C-148.4925 402.4375 -147.1725 402.4375 -145.8125 402.4375 C-145.4825 403.4275 -145.1525 404.4175 -144.8125 405.4375 C-134.9125 405.4375 -125.0125 405.4375 -114.8125 405.4375 C-114.8125 405.1075 -114.8125 404.7775 -114.8125 404.4375 C-116.4625 404.1075 -118.1125 403.7775 -119.8125 403.4375 C-116.8425 403.1075 -113.8725 402.7775 -110.8125 402.4375 C-110.8125 403.0975 -110.8125 403.7575 -110.8125 404.4375 C-108.1725 404.1075 -105.5325 403.7775 -102.8125 403.4375 C-102.8125 402.7775 -102.8125 402.1175 -102.8125 401.4375 C-100.8325 401.7675 -98.8525 402.0975 -96.8125 402.4375 C-96.4825 401.1175 -96.1525 399.7975 -95.8125 398.4375 C-95.19375 399.2109375 -95.19375 399.2109375 -94.5625 400 C-93.985 400.474375 -93.4075 400.94875 -92.8125 401.4375 C-90.64950789 401.20992269 -90.64950789 401.20992269 -88.8125 400.4375 C-89.1425 399.7775 -89.4725 399.1175 -89.8125 398.4375 C-90.1425 397.7775 -90.4725 397.1175 -90.8125 396.4375 C-86.0625 397.1875 -86.0625 397.1875 -83.8125 399.4375 C-79.09184033 397.89480076 -74.39585908 396.35955381 -69.8125 394.4375 C-70.4725 394.1075 -71.1325 393.7775 -71.8125 393.4375 C-71.1525 393.1075 -70.4925 392.7775 -69.8125 392.4375 C-69.8125 391.7775 -69.8125 391.1175 -69.8125 390.4375 C-69.1525 390.4375 -68.4925 390.4375 -67.8125 390.4375 C-68.1425 391.4275 -68.4725 392.4175 -68.8125 393.4375 C-67.4925 393.1075 -66.1725 392.7775 -64.8125 392.4375 C-64.8125 391.7775 -64.8125 391.1175 -64.8125 390.4375 C-63.8225 390.4375 -62.8325 390.4375 -61.8125 390.4375 C-61.8125 388.7875 -61.8125 387.1375 -61.8125 385.4375 C-60.8225 385.4375 -59.8325 385.4375 -58.8125 385.4375 C-58.4825 386.0975 -58.1525 386.7575 -57.8125 387.4375 C-56.1625 387.4375 -54.5125 387.4375 -52.8125 387.4375 C-52.4825 386.7775 -52.1525 386.1175 -51.8125 385.4375 C-50.8225 385.1075 -49.8325 384.7775 -48.8125 384.4375 C-49.1425 382.7875 -49.4725 381.1375 -49.8125 379.4375 C-46.8425 378.9425 -46.8425 378.9425 -43.8125 378.4375 C-43.8125 377.7775 -43.8125 377.1175 -43.8125 376.4375 C-43.1525 376.4375 -42.4925 376.4375 -41.8125 376.4375 C-41.8125 377.4275 -41.8125 378.4175 -41.8125 379.4375 C-38.89732708 378.36348892 -37.03439824 377.65939824 -34.8125 375.4375 C-35.8025 375.4375 -36.7925 375.4375 -37.8125 375.4375 C-37.8125 374.7775 -37.8125 374.1175 -37.8125 373.4375 C-35.5025 373.4375 -33.1925 373.4375 -30.8125 373.4375 C-29.8225 371.4575 -29.8225 371.4575 -28.8125 369.4375 C-29.4725 369.1075 -30.1325 368.7775 -30.8125 368.4375 C-28.3375 367.4475 -28.3375 367.4475 -25.8125 366.4375 C-25.8125 365.7775 -25.8125 365.1175 -25.8125 364.4375 C-25.1525 364.1075 -24.4925 363.7775 -23.8125 363.4375 C-24.4725 363.4375 -25.1325 363.4375 -25.8125 363.4375 C-26.1425 362.4475 -26.4725 361.4575 -26.8125 360.4375 C-28.7925 360.4375 -30.7725 360.4375 -32.8125 360.4375 C-32.4825 362.0875 -32.1525 363.7375 -31.8125 365.4375 C-32.8025 365.4375 -33.7925 365.4375 -34.8125 365.4375 C-34.8125 364.7775 -34.8125 364.1175 -34.8125 363.4375 C-35.4725 363.4375 -36.1325 363.4375 -36.8125 363.4375 C-37.1425 365.4175 -37.4725 367.3975 -37.8125 369.4375 C-38.4725 368.7775 -39.1325 368.1175 -39.8125 367.4375 C-40.4725 367.4375 -41.1325 367.4375 -41.8125 367.4375 C-42.1425 369.0875 -42.4725 370.7375 -42.8125 372.4375 C-44.4625 372.1075 -46.1125 371.7775 -47.8125 371.4375 C-50.07135324 374.69147508 -50.07135324 374.69147508 -50.8125 378.4375 C-53.7825 378.4375 -56.7525 378.4375 -59.8125 378.4375 C-59.8125 379.0975 -59.8125 379.7575 -59.8125 380.4375 C-62.6875 380.5625 -62.6875 380.5625 -65.8125 380.4375 C-66.4725 379.7775 -67.1325 379.1175 -67.8125 378.4375 C-70.38311311 377.78982207 -70.38311311 377.78982207 -72.8125 377.4375 C-73.1425 376.1175 -73.4725 374.7975 -73.8125 373.4375 C-73.1525 373.4375 -72.4925 373.4375 -71.8125 373.4375 C-71.73 372.48875 -71.6475 371.54 -71.5625 370.5625 C-71.19125 369.015625 -71.19125 369.015625 -70.8125 367.4375 C-69.04296875 366.39453125 -69.04296875 366.39453125 -66.8125 365.4375 C-63.79495565 363.8018722 -60.80426528 362.11970254 -57.8125 360.4375 C-56.801875 359.880625 -55.79125 359.32375 -54.75 358.75 C-54.110625 358.316875 -53.47125 357.88375 -52.8125 357.4375 C-52.8125 356.7775 -52.8125 356.1175 -52.8125 355.4375 C-51.8225 355.4375 -50.8325 355.4375 -49.8125 355.4375 C-49.8125 354.7775 -49.8125 354.1175 -49.8125 353.4375 C-48.69875 353.0353125 -48.69875 353.0353125 -47.5625 352.625 C-44.92188051 351.48473249 -42.95697156 350.34369694 -40.8125 348.4375 C-40.8125 347.7775 -40.8125 347.1175 -40.8125 346.4375 C-39.39853098 345.92992138 -37.98118271 345.43175075 -36.5625 344.9375 C-35.77359375 344.6590625 -34.9846875 344.380625 -34.171875 344.09375 C-31.8125 343.4375 -31.8125 343.4375 -27.8125 343.4375 C-28.1425 344.0975 -28.4725 344.7575 -28.8125 345.4375 C-27.8225 346.0975 -26.8325 346.7575 -25.8125 347.4375 C-25.6875 350.4375 -25.6875 350.4375 -25.8125 353.4375 C-25.4825 354.0975 -25.1525 354.7575 -24.8125 355.4375 C-25.8025 355.9325 -25.8025 355.9325 -26.8125 356.4375 C-26.23305068 358.43613756 -26.23305068 358.43613756 -24.8125 360.4375 C-21.77050528 361.72981642 -21.77050528 361.72981642 -18.8125 362.4375 C-17.47917905 359.7708581 -18.14147967 358.27069697 -18.8125 355.4375 C-15.8425 354.9425 -15.8425 354.9425 -12.8125 354.4375 C-13.1425 352.7875 -13.4725 351.1375 -13.8125 349.4375 C-13.049375 349.64375 -12.28625 349.85 -11.5 350.0625 C-8.59364056 350.77141203 -8.59364056 350.77141203 -5.8125 348.4375 C-6.1425 346.4575 -6.4725 344.4775 -6.8125 342.4375 C-5.1625 342.7675 -3.5125 343.0975 -1.8125 343.4375 C0.4648501 340.62240007 0.4648501 340.62240007 0.1875 337.4375 C0.1875 335.4375 0.1875 333.4375 0.1875 331.4375 C2.1875 331.4375 2.1875 331.4375 3.8125 332.9375 C4.493125 333.68 4.493125 333.68 5.1875 334.4375 C5.5175 333.4475 5.8475 332.4575 6.1875 331.4375 C5.5275 330.4475 4.8675 329.4575 4.1875 328.4375 C4.950625 328.39625 5.71375 328.355 6.5 328.3125 C9.41360732 327.66639103 9.41360732 327.66639103 10.9375 324.875 C12.36572678 320.94737637 12.82941917 317.59123759 13.1875 313.4375 C14.1775 313.4375 15.1675 313.4375 16.1875 313.4375 C16.72144179 312.0257217 17.23915104 310.60779756 17.75 309.1875 C18.04003906 308.39859375 18.33007812 307.6096875 18.62890625 306.796875 C19.23272837 304.24646548 19.0348932 302.88427771 18.1875 300.4375 C19.6725 299.9425 19.6725 299.9425 21.1875 299.4375 C22.02083333 297.52083333 22.02083333 297.52083333 22.1875 295.4375 C21.8575 294.7775 21.5275 294.1175 21.1875 293.4375 C21.8475 293.1075 22.5075 292.7775 23.1875 292.4375 C21.5375 292.7675 19.8875 293.0975 18.1875 293.4375 C18.1875 294.0975 18.1875 294.7575 18.1875 295.4375 C17.5275 295.4375 16.8675 295.4375 16.1875 295.4375 C16.1875 294.4475 16.1875 293.4575 16.1875 292.4375 C16.8475 292.1075 17.5075 291.7775 18.1875 291.4375 C11.84480875 291.19130181 11.84480875 291.19130181 5.625 292.125 C1.59926155 292.64112031 -2.20983284 291.22113875 -5.8125 289.4375 C-7.8125 286.4375 -7.8125 286.4375 -7.6875 282.9375 C-6.8125 279.4375 -6.8125 279.4375 -5.12402344 277.75073242 C-2.24877294 276.11723301 -0.25041903 276.00989589 3.046875 275.92578125 C4.16191406 275.89033203 5.27695312 275.85488281 6.42578125 275.81835938 C8.16408203 275.78452148 8.16408203 275.78452148 9.9375 275.75 C11.69900391 275.69875977 11.69900391 275.69875977 13.49609375 275.64648438 C16.39313389 275.56404827 19.28987298 275.49488189 22.1875 275.4375 C22.1875 274.7775 22.1875 274.1175 22.1875 273.4375 C22.8475 273.4375 23.5075 273.4375 24.1875 273.4375 C24.1875 272.4475 24.1875 271.4575 24.1875 270.4375 C24.8475 270.4375 25.5075 270.4375 26.1875 270.4375 C26.5175 271.0975 26.8475 271.7575 27.1875 272.4375 C29.12574084 265.89593716 29.1875 261.65679137 29.1875 254.4375 C-60.2425 254.4375 -149.6725 254.4375 -241.8125 254.4375 C-241.8125 259.86243734 -241.49083364 263.71979031 -240.3125 268.875 C-239.89484375 270.72931641 -239.89484375 270.72931641 -239.46875 272.62109375 C-239.2521875 273.55050781 -239.035625 274.47992187 -238.8125 275.4375 C-237.34876953 275.47617187 -237.34876953 275.47617187 -235.85546875 275.515625 C-234.58316406 275.57234375 -233.31085938 275.6290625 -232 275.6875 C-230.73542969 275.73390625 -229.47085938 275.7803125 -228.16796875 275.828125 C-224.8125 276.4375 -224.8125 276.4375 -222.88671875 278.26171875 C-221.3089677 281.45738178 -221.43009914 283.93215875 -221.8125 287.4375 C-222.8125 289.3125 -222.8125 289.3125 -224.8125 290.4375 C-227.49425622 290.97173546 -230.07619448 291.21321266 -232.8125 291.4375 C-232.23985836 296.07149233 -230.22164146 299.61681967 -227.875 303.5625 C-227.51470703 304.18253906 -227.15441406 304.80257812 -226.78320312 305.44140625 C-225.19548374 308.16070465 -223.55957175 310.81689238 -221.8125 313.4375 C-221.1525 313.4375 -220.4925 313.4375 -219.8125 313.4375 C-219.43738281 314.28441406 -219.43738281 314.28441406 -219.0546875 315.1484375 C-210.24060376 331.39074275 -189.62373369 343.88396822 -172.8125 350.4375 C-172.1525 350.4375 -171.4925 350.4375 -170.8125 350.4375 C-169.6279869 353.99103929 -169.54608106 356.70763478 -169.8125 360.4375 C-170.875 362.375 -170.875 362.375 -172.8125 363.4375 C-178.40376867 363.90343906 -181.82184952 362.84989041 -186.75 360.25 C-187.35682617 359.93409912 -187.96365234 359.61819824 -188.58886719 359.29272461 C-192.00010726 357.49376445 -195.30950804 355.56954516 -198.5625 353.5 C-201.45240839 351.25889185 -201.45240839 351.25889185 -203.8125 351.4375 C-203.8125 350.7775 -203.8125 350.1175 -203.8125 349.4375 C-204.8025 349.4375 -205.7925 349.4375 -206.8125 349.4375 C-206.8125 348.7775 -206.8125 348.1175 -206.8125 347.4375 C-208.59542626 345.86551897 -208.59542626 345.86551897 -210.875 344.25 C-223.57830614 334.5986582 -232.53448509 321.90174111 -240.8125 308.4375 C-241.35132813 307.57382812 -241.89015625 306.71015625 -242.4453125 305.8203125 C-251.20570427 290.55220113 -254.94713027 271.74125872 -256.8125 254.4375 C-259.7825 254.4375 -262.7525 254.4375 -265.8125 254.4375 Z M25.1875 272.4375 C26.1875 275.4375 26.1875 275.4375 26.1875 275.4375 Z M-285.8125 291.4375 C-284.8125 293.4375 -284.8125 293.4375 -284.8125 293.4375 Z M-281.8125 291.4375 C-281.8125 292.7575 -281.8125 294.0775 -281.8125 295.4375 C-282.4725 295.4375 -283.1325 295.4375 -283.8125 295.4375 C-283.8125 296.7575 -283.8125 298.0775 -283.8125 299.4375 C-283.1525 299.4375 -282.4925 299.4375 -281.8125 299.4375 C-282.1425 300.4275 -282.4725 301.4175 -282.8125 302.4375 C-282.1525 302.4375 -281.4925 302.4375 -280.8125 302.4375 C-280.4825 303.4275 -280.1525 304.4175 -279.8125 305.4375 C-278.4925 305.4375 -277.1725 305.4375 -275.8125 305.4375 C-275.8125 306.7575 -275.8125 308.0775 -275.8125 309.4375 C-276.4725 309.4375 -277.1325 309.4375 -277.8125 309.4375 C-278.1425 310.4275 -278.4725 311.4175 -278.8125 312.4375 C-278.1525 312.7675 -277.4925 313.0975 -276.8125 313.4375 C-277.1425 314.0975 -277.4725 314.7575 -277.8125 315.4375 C-277.20488047 317.57002737 -277.20488047 317.57002737 -275.8125 319.4375 C-273.76249129 320.24278889 -273.76249129 320.24278889 -271.8125 320.4375 C-270.70413577 318.55433841 -270.70413577 318.55433841 -269.8125 316.4375 C-270.1425 315.7775 -270.4725 315.1175 -270.8125 314.4375 C-269.8225 314.4375 -268.8325 314.4375 -267.8125 314.4375 C-267.4825 315.0975 -267.1525 315.7575 -266.8125 316.4375 C-266.8125 315.1175 -266.8125 313.7975 -266.8125 312.4375 C-268.1325 312.4375 -269.4525 312.4375 -270.8125 312.4375 C-269.8225 311.7775 -268.8325 311.1175 -267.8125 310.4375 C-268.16183594 309.60605469 -268.51117188 308.77460937 -268.87109375 307.91796875 C-269.32613281 306.83128906 -269.78117187 305.74460937 -270.25 304.625 C-270.70246094 303.54605469 -271.15492188 302.46710938 -271.62109375 301.35546875 C-272.95527569 298.0878166 -273.98577653 294.86249724 -274.8125 291.4375 C-277.1225 291.4375 -279.4325 291.4375 -281.8125 291.4375 Z M-283.8125 292.4375 C-282.8125 294.4375 -282.8125 294.4375 -282.8125 294.4375 Z M19.1875 302.4375 C20.1875 304.4375 20.1875 304.4375 20.1875 304.4375 Z M12.1875 317.4375 C13.1875 319.4375 13.1875 319.4375 13.1875 319.4375 Z M-16.8125 357.4375 C-16.8125 360.4375 -16.8125 360.4375 -16.8125 360.4375 Z M-32.8125 362.4375 C-33.1425 363.0975 -33.4725 363.7575 -33.8125 364.4375 C-33.1525 364.4375 -32.4925 364.4375 -31.8125 364.4375 C-32.1425 363.7775 -32.4725 363.1175 -32.8125 362.4375 Z M-23.8125 364.4375 C-22.8125 366.4375 -22.8125 366.4375 -22.8125 366.4375 Z M-51.8125 374.4375 C-52.1425 375.0975 -52.4725 375.7575 -52.8125 376.4375 C-52.1525 376.4375 -51.4925 376.4375 -50.8125 376.4375 C-51.1425 375.7775 -51.4725 375.1175 -51.8125 374.4375 Z M-59.8125 387.4375 C-58.8125 390.4375 -58.8125 390.4375 -58.8125 390.4375 Z M-147.8125 393.4375 C-146.8125 395.4375 -146.8125 395.4375 -146.8125 395.4375 Z M-176.8125 426.4375 C-177.1425 425.7775 -177.4725 425.1175 -177.8125 424.4375 C-177.8125 425.0975 -177.8125 425.7575 -177.8125 426.4375 C-178.8025 426.7675 -179.7925 427.0975 -180.8125 427.4375 C-180.4825 429.4175 -180.1525 431.3975 -179.8125 433.4375 C-181.4625 433.1075 -183.1125 432.7775 -184.8125 432.4375 C-184.8125 433.4275 -184.8125 434.4175 -184.8125 435.4375 C-185.4725 435.4375 -186.1325 435.4375 -186.8125 435.4375 C-186.8125 436.4275 -186.8125 437.4175 -186.8125 438.4375 C-185.8225 438.4375 -184.8325 438.4375 -183.8125 438.4375 C-183.8125 439.0975 -183.8125 439.7575 -183.8125 440.4375 C-184.8025 440.4375 -185.7925 440.4375 -186.8125 440.4375 C-186.4825 441.4275 -186.1525 442.4175 -185.8125 443.4375 C-138.9525 443.4375 -92.0925 443.4375 -43.8125 443.4375 C-43.8125 442.4475 -43.8125 441.4575 -43.8125 440.4375 C-43.1525 440.4375 -42.4925 440.4375 -41.8125 440.4375 C-41.8125 439.7775 -41.8125 439.1175 -41.8125 438.4375 C-40.1625 438.4375 -38.5125 438.4375 -36.8125 438.4375 C-36.4825 440.0875 -36.1525 441.7375 -35.8125 443.4375 C-32.5125 443.4375 -29.2125 443.4375 -25.8125 443.4375 C-26.8025 442.4475 -26.8025 442.4475 -27.8125 441.4375 C-26.8225 440.9425 -26.8225 440.9425 -25.8125 440.4375 C-25.8125 437.4675 -25.8125 434.4975 -25.8125 431.4375 C-27.1325 431.4375 -28.4525 431.4375 -29.8125 431.4375 C-30.8025 428.4675 -30.8025 428.4675 -31.8125 425.4375 C-32.8025 425.4375 -33.7925 425.4375 -34.8125 425.4375 C-35.4725 425.4375 -36.1325 425.4375 -36.8125 425.4375 C-37.1425 424.7775 -37.4725 424.1175 -37.8125 423.4375 C-55.49286166 423.36746713 -73.17318741 423.31453995 -90.85365772 423.28206348 C-99.06272323 423.26658433 -107.27170264 423.24547489 -115.48071289 423.21118164 C-122.63439337 423.18131125 -129.7880115 423.16193262 -136.94175261 423.15523452 C-140.73080167 423.15131822 -144.51967235 423.14209288 -148.30866432 423.12030983 C-151.8733697 423.09998181 -155.43782281 423.09365863 -159.00258064 423.09817696 C-160.9379205 423.09695516 -162.87323275 423.08079374 -164.8085022 423.0642395 C-165.95695114 423.06836349 -167.10540009 423.07248749 -168.28865051 423.07673645 C-169.2887959 423.07397107 -170.28894129 423.07120569 -171.31939411 423.06835651 C-174.18168082 423.49216302 -175.0592438 424.19430341 -176.8125 426.4375 Z M-224.8125 424.4375 C-225.1425 425.0975 -225.4725 425.7575 -225.8125 426.4375 C-225.1525 426.4375 -224.4925 426.4375 -223.8125 426.4375 C-224.1425 425.7775 -224.4725 425.1175 -224.8125 424.4375 Z M-210.8125 430.4375 C-210.4825 432.7475 -210.1525 435.0575 -209.8125 437.4375 C-210.4725 437.4375 -211.1325 437.4375 -211.8125 437.4375 C-211.1525 438.7575 -210.4925 440.0775 -209.8125 441.4375 C-208.1625 441.4375 -206.5125 441.4375 -204.8125 441.4375 C-204.8125 440.4475 -204.8125 439.4575 -204.8125 438.4375 C-203.8225 438.4375 -202.8325 438.4375 -201.8125 438.4375 C-201.8125 436.4575 -201.8125 434.4775 -201.8125 432.4375 C-204.4525 432.4375 -207.0925 432.4375 -209.8125 432.4375 C-210.1425 431.7775 -210.4725 431.1175 -210.8125 430.4375 Z M-235.8125 432.4375 C-234.8225 432.9325 -234.8225 432.9325 -233.8125 433.4375 C-233.998125 434.38625 -234.18375 435.335 -234.375 436.3125 C-235.09936632 439.33618793 -235.09936632 439.33618793 -233.8125 441.4375 C-232.4925 441.4375 -231.1725 441.4375 -229.8125 441.4375 C-229.4825 442.0975 -229.1525 442.7575 -228.8125 443.4375 C-228.8125 442.7775 -228.8125 442.1175 -228.8125 441.4375 C-228.1525 441.1075 -227.4925 440.7775 -226.8125 440.4375 C-227.1425 439.7775 -227.4725 439.1175 -227.8125 438.4375 C-227.1525 438.1075 -226.4925 437.7775 -225.8125 437.4375 C-226.59380071 434.94197516 -226.59380071 434.94197516 -227.8125 432.4375 C-231.10226808 431.34091064 -232.52553767 431.63796862 -235.8125 432.4375 Z " fill="#021C57" transform="translate(607.8125,477.5625)"/>
<path d="M0 0 C10.45738765 -0.09275265 20.91467715 -0.1637918 31.37239265 -0.20724869 C36.22855299 -0.22810775 41.08443152 -0.2563947 45.94042969 -0.30175781 C50.62831256 -0.34527551 55.31592468 -0.36914976 60.00399399 -0.37950897 C61.79095598 -0.38688971 63.57790344 -0.40130271 65.36474991 -0.42292023 C67.87125718 -0.45203345 70.37665115 -0.45595277 72.88330078 -0.45410156 C73.98705803 -0.47567322 73.98705803 -0.47567322 75.1131134 -0.49768066 C80.21616011 -0.45700202 83.07192325 0.79187713 87 4 C89.23828125 6.85546875 89.23828125 6.85546875 91.3125 10.1875 C91.69075928 10.79480957 92.06901855 11.40211914 92.45874023 12.02783203 C100.12940972 24.5487224 106.48916627 37.85352422 113 51 C118.27241812 61.63807479 123.61213181 72.22687718 129.17919922 82.71411133 C132.86687792 89.68682417 136.38441809 96.73915423 139.89208984 103.80371094 C143.26369467 110.57544315 146.75330172 117.27613131 150.30078125 123.95703125 C153.72558114 130.42730192 156.9989571 136.96670885 160.25244141 143.52441406 C163.06923856 149.18438493 165.97263158 154.79132035 168.9375 160.375 C173.05066696 168.12275788 176.99122254 175.94724652 180.89208984 183.80371094 C184.26119963 190.57043196 187.74577589 197.26753813 191.29418945 203.94165039 C194.76874368 210.49948333 198.08995524 217.12847638 201.33813477 223.80126953 C204.5808787 230.38655547 208.24714202 236.6936649 212 243 C220.05832727 224.94473414 228.08880509 206.88012946 235.92260742 188.72607422 C240.56935965 177.96389464 245.28123722 167.2307725 250 156.5 C255.73753466 143.44987733 261.44843635 130.3892601 267.10644531 117.30444336 C272.18258494 105.56725244 277.29144158 93.84442211 282.40454102 82.12329102 C282.76230118 81.30317032 283.12006134 80.48304962 283.48866272 79.63807678 C284.21694495 77.9685837 284.94524705 76.29909929 285.67356873 74.62962341 C288.30190354 68.60373388 290.92529512 62.57570594 293.546875 56.546875 C296.76871244 49.13778273 299.99734346 41.73169876 303.23498535 34.32949829 C305.12958323 29.99711666 307.01313734 25.66014548 308.890625 21.3203125 C309.67634815 19.5257196 310.46272276 17.73141167 311.25 15.9375 C311.57226562 15.18315674 311.89453125 14.42881348 312.2265625 13.65161133 C314.45148146 8.63306416 317.03353543 4.02230654 321.68707275 0.84988403 C324.95007013 -0.34910282 328.09387048 -0.26198921 331.52246094 -0.22705078 C332.6498745 -0.22748886 332.6498745 -0.22748886 333.80006409 -0.22793579 C336.27828616 -0.22654519 338.7562056 -0.21099684 341.234375 -0.1953125 C342.95501542 -0.19158141 344.67565797 -0.18873489 346.39630127 -0.18673706 C350.92057176 -0.17910818 355.44471344 -0.15946608 359.96893311 -0.1373291 C364.58734393 -0.11685464 369.2057756 -0.10773192 373.82421875 -0.09765625 C382.88286903 -0.07621949 391.9414238 -0.04209251 401 0 C401 1.98 401 3.96 401 6 C398.21249088 7.39375456 395.73650659 7.23075797 392.625 7.375 C381.77935635 8.11800422 371.63074367 9.95287902 363 17 C356.57415957 24.5749319 355.65899382 32.62663236 355.72900391 42.23144531 C355.73420862 43.4337038 355.73941334 44.6359623 355.74477577 45.87465286 C355.95286846 65.84383466 357.14004448 85.7961319 358.15535688 105.73652554 C358.46173921 111.77719692 358.76102031 117.81822119 359.06143188 123.85919189 C359.56596218 133.98222712 360.07617596 144.10496364 360.58984375 154.22753906 C361.18159617 165.89036195 361.76401071 177.55362342 362.34155118 189.21715808 C362.90092703 200.5091187 363.46709256 211.80072942 364.03624344 223.09220123 C364.27686059 227.86837334 364.51511202 232.64465446 364.75138474 237.4210434 C365.0299121 243.04570644 365.31441977 248.67003721 365.60336876 254.29417419 C365.70780009 256.34499615 365.81024914 258.39592028 365.91045952 260.44695282 C365.70616261 285.11653009 365.70616261 285.11653009 374.5 306.875 C382.61840078 312.60331199 393.03797101 312.43757978 402.5703125 312.7890625 C406 313 406 313 407 314 C407.125 316.5 407.125 316.5 407 319 C406 320 406 320 403.87792873 320.12304783 C402.4634374 320.12166514 402.4634374 320.12166514 401.02037048 320.12025452 C399.40279091 320.12231651 399.40279091 320.12231651 397.75253296 320.12442017 C395.96258408 320.11902725 395.96258408 320.11902725 394.13647461 320.11352539 C392.88787155 320.11367142 391.63926849 320.11381744 390.35282898 320.1139679 C386.91909006 320.11338891 383.48541062 320.10835955 380.05168223 320.10139394 C376.46687541 320.09515998 372.88206787 320.09455657 369.29725647 320.09336853 C362.50449955 320.09025534 355.71175865 320.08204212 348.91900879 320.07201904 C341.18757506 320.06085753 333.45614058 320.05534736 325.72470081 320.05032361 C309.81645792 320.03985949 293.90823102 320.02226029 278 320 C277.95745644 318.00045254 277.95919217 315.99958364 278 314 C280.0118095 311.9881905 284.09595774 312.72737024 286.875 312.625 C295.08009891 312.22368232 302.77242953 311.46608277 310 307.25 C320.58007334 295.34741749 315.79749226 273.80706316 315.09790039 259.17089844 C315.00075402 257.09182371 314.90386266 255.01273705 314.8072052 252.93363953 C314.54560887 247.32487666 314.28012211 241.71630452 314.01364064 236.10777187 C313.79134047 231.42242639 313.57086027 226.73699594 313.35034078 222.05156636 C312.83056805 211.00933917 312.30752261 199.9672703 311.7824707 188.92529297 C311.24035065 177.52305186 310.70401747 166.12054863 310.17044073 154.71790481 C309.71184568 144.9222166 309.24960269 135.12670516 308.78441805 125.33132768 C308.50670249 119.48255683 308.23042125 113.63372692 307.95768929 107.78472137 C307.70171282 102.29827418 307.4412078 96.81206097 307.17712212 91.32599831 C307.08073654 89.30756439 306.98599129 87.28905141 306.89295959 85.27046013 C306.7663041 82.52779407 306.63387359 79.78546836 306.49989319 77.04315186 C306.46389655 76.23394216 306.42789991 75.42473247 306.39081246 74.59100127 C306.52456889 70.9936334 306.52456889 70.9936334 305 68 C304.75262085 68.57721802 304.5052417 69.15443604 304.25036621 69.74914551 C303.03149414 72.59318034 301.81262207 75.43721517 300.59375 78.28125 C299.89312439 79.91604309 299.89312439 79.91604309 299.17834473 81.5838623 C297.07592773 86.48950195 294.97351074 91.3951416 292.87109375 96.30078125 C292.59943893 96.93464249 292.32778412 97.56850372 292.04789734 98.22157288 C290.64651489 101.49146525 289.24513245 104.76135763 287.84375 108.03125 C287.55930023 108.69496613 287.27485046 109.35868225 286.98178101 110.04251099 C286.69606232 110.70918793 286.41034363 111.37586487 286.1159668 112.06274414 C285.83038406 112.72910385 285.54480133 113.39546356 285.25056458 114.08201599 C284.96549545 114.74717728 284.68042633 115.41233856 284.38671875 116.09765625 C284.10249557 116.76084366 283.8182724 117.42403107 283.5254364 118.10731506 C282.15774536 121.29859416 280.79005432 124.48987325 279.42236328 127.68115234 C278.91817871 128.85758301 278.41399414 130.03401367 277.89453125 131.24609375 C274.9296875 138.1640625 271.96484375 145.08203125 269 152 C268.50717529 153.14992432 268.01435059 154.29984863 267.5065918 155.48461914 C267.0113501 156.64018311 266.5161084 157.79574707 266.00585938 158.98632812 C265.51001343 160.143302 265.01416748 161.30027588 264.5032959 162.49230957 C263.00219727 165.99487305 261.50109863 169.49743652 260 173 C259.2575 174.7325 259.2575 174.7325 258.5 176.5 C253.99999999 187.00000003 253.99999999 187.00000003 252.50019836 190.49952698 C251.49952733 192.83443284 250.49886613 195.16934292 249.49821472 197.5042572 C247.00856188 203.31356526 244.51874194 209.12280158 242.02856445 214.93188477 C237.40530024 225.71750941 232.78356446 236.50378111 228.16769409 247.29257202 C226.28642312 251.68967606 224.40432041 256.08642396 222.52204704 260.48309898 C221.25155771 263.45092229 219.98166029 266.41899659 218.71264648 269.38745117 C215.9516541 275.84575612 213.18177241 282.30010263 210.39935303 288.74920654 C209.42785244 291.00606932 208.46005526 293.26452847 207.49517822 295.52423096 C206.00128343 299.02113646 204.49593446 302.51291441 202.98828125 306.00390625 C202.53188766 307.07914047 202.07549408 308.15437469 201.60527039 309.26219177 C201.17648087 310.24889359 200.74769135 311.2355954 200.3059082 312.25219727 C199.93198441 313.12320572 199.55806061 313.99421417 199.17280579 314.89161682 C198 317 198 317 195 319 C192.30543027 318.79790727 190.60791775 318.50532498 188.51002502 316.76147461 C186.69308789 314.64198084 185.57791156 312.50759354 184.33959961 310.00390625 C183.83154282 308.98433838 183.32348602 307.96477051 182.80003357 306.91430664 C182.25629593 305.80821045 181.71255829 304.70211426 181.15234375 303.5625 C180.27852507 301.80474307 179.4047041 300.04698728 178.53076267 298.28929138 C177.30374664 295.81771595 176.08225258 293.34342849 174.86071777 290.86914062 C172.17405179 285.42973437 169.47591733 279.99600567 166.77734375 274.5625 C166.48279171 273.96888672 166.18823967 273.37527344 165.88476181 272.76367188 C162.35296142 265.64985816 158.76813833 258.57280955 155.03515625 251.5625 C150.908757 243.81209404 146.94975739 235.98203848 143.03125 228.125 C142.57301188 227.20634659 142.57301188 227.20634659 142.10551643 226.26913452 C139.58249196 221.20909619 137.06470841 216.14645394 134.54705811 211.08374023 C132.35666587 206.67964027 130.1643337 202.27651437 127.96875 197.875 C127.66267822 197.26133575 127.35660645 196.64767151 127.04125977 196.01541138 C123.45021843 188.82177621 119.80981414 181.65970476 116.03125 174.5625 C111.82915098 166.66849736 107.8039348 158.68952838 103.8125 150.6875 C103.4959697 150.05299927 103.17943939 149.41849854 102.85331726 148.76477051 C100.23555249 143.5152256 97.62302764 138.26307654 95.01062012 133.01086426 C92.73861581 128.44356024 90.46467562 123.8772281 88.1875 119.3125 C87.87251556 118.68101044 87.55753113 118.04952087 87.23300171 117.39889526 C83.12064343 109.16129895 78.94061907 100.96512109 74.60687256 92.84152222 C71.72384551 87.41953591 68.94538503 81.95135599 66.2109375 76.453125 C65.80254639 75.63408691 65.39415527 74.81504883 64.97338867 73.97119141 C63.98132629 71.98125662 62.99020992 69.99085705 62 68 C61.62562234 82.52952253 61.25172883 97.05905745 60.87835789 111.58860588 C60.70484615 118.34032614 60.53118599 125.09204251 60.35717773 131.84375 C59.9006061 149.56239451 59.44700498 167.28111134 59 185 C58.95936243 186.60956951 58.95936243 186.60956951 58.9179039 188.25165558 C58.10166962 218.59369586 58.10166962 218.59369586 57.70483398 248.94287109 C57.69297666 250.77758281 57.67203948 252.61225225 57.64331055 254.44677734 C57.39085838 270.88860625 58.08289027 288.86950273 69.66015625 301.86328125 C77.55701588 309.11256242 87.09825704 312.08187197 97.609375 312.65625 C100 313 100 313 102 315 C101.67 316.65 101.34 318.3 101 320 C66.68 320 32.36 320 -3 320 C-3.33 318.68 -3.66 317.36 -4 316 C-3.34 315.01 -2.68 314.02 -2 313 C0.8359375 312.48046875 0.8359375 312.48046875 4.375 312.1875 C13.8827312 310.99781466 22.87278186 307.49528546 29.41015625 300.22265625 C37.65030863 288.70263978 40.78846572 276.24827201 41.54026794 262.22897339 C41.58127984 261.49468325 41.62229174 260.76039312 41.66454643 260.00385177 C42.12072398 251.39020598 42.30581067 242.7719977 42.48071289 234.14892578 C42.52000457 232.32817523 42.55956871 230.50743054 42.59938049 228.68669128 C42.70558242 223.79147274 42.80780985 218.896179 42.90911031 214.00085688 C43.01656814 208.83385245 43.1272466 203.66691677 43.2374115 198.49996948 C43.42202349 189.81708369 43.60400235 181.13414569 43.78442383 172.45117188 C43.99154255 162.48506165 44.20296839 152.5190499 44.41671187 142.55307972 C44.62385365 132.88948485 44.82771681 123.22582327 45.03021049 113.56212997 C45.1156621 109.4871069 45.20223307 105.41211005 45.28978157 101.3371315 C45.50554075 91.26002861 45.71054299 81.1829669 45.87698096 71.10491407 C45.95180369 66.59613185 46.04206743 62.08819838 46.14984208 57.58008826 C46.21887234 54.47796852 46.26099342 51.3754912 46.30639648 48.27294922 C46.33727639 47.21588839 46.3681563 46.15882755 46.39997196 45.06973457 C46.47083744 37.16459905 44.72858179 32.43670241 39.4296875 26.38671875 C38.62789062 25.59910156 37.82609375 24.81148437 37 24 C36.40445313 23.30519531 35.80890625 22.61039063 35.1953125 21.89453125 C25.93481824 11.50416807 13.22174287 8.10065074 0 6 C0 4.02 0 2.04 0 0 Z " fill="#031C57" transform="translate(543,100)"/>
<path d="M0 0 C42.57 0 85.14 0 129 0 C130 4 130 4 129.03515625 5.71875 C125.99694082 7.63148447 122.9219598 7.44373421 119.4375 7.5 C110.06122054 7.88373799 101.67949174 8.83176497 95 16 C92.07429214 21.64964276 90.87307476 26.80179971 90.87974548 33.11897278 C90.87837082 34.12713043 90.87699615 35.13528809 90.87557983 36.17399597 C90.87917511 37.26875748 90.88277039 38.36351898 90.88647461 39.49145508 C90.88632858 40.65286011 90.88618256 41.81426514 90.8860321 43.01086426 C90.88672839 46.84710563 90.89450757 50.68329836 90.90234375 54.51953125 C90.90420894 57.18039533 90.90568156 59.84125672 90.90663147 62.50212097 C90.90973661 68.78829702 90.91793898 75.07445563 90.92798096 81.36062402 C90.93916747 88.51900521 90.94465894 95.67738725 90.94967639 102.83577502 C90.96012228 117.55719225 90.9777059 132.27859582 91 147 C98.57473529 139.44850996 106.14671164 131.89426529 113.71524906 124.33656311 C117.23030062 120.82671382 120.74626944 117.31779408 124.2644043 113.81103516 C127.66419931 110.42216382 131.06149344 107.03080336 134.4571209 103.63775635 C135.74830141 102.34841308 137.04035673 101.05994521 138.33333015 99.7723999 C144.19316163 93.93617626 150.01222602 88.13875656 155.37815857 81.83877563 C158.64268951 78.13758769 162.22193716 74.74021538 165.75 71.29296875 C167.42753103 69.63782342 169.10460022 67.9822099 170.78125 66.32617188 C173.38989733 63.75454576 176.00141197 61.18611999 178.62109375 58.62573242 C181.17344558 56.12831373 183.71252863 53.61799395 186.25 51.10546875 C187.02311523 50.35613571 187.79623047 49.60680267 188.59277344 48.83476257 C195.33108175 42.12869783 203.83163237 32.88521747 204.046875 22.8046875 C203.35864831 17.57288077 203.35864831 17.57288077 201 13 C198.80067065 11.83486387 198.80067065 11.83486387 196 11 C194.845 10.484375 193.69 9.96875 192.5 9.4375 C187.69885204 7.60717731 182.85042843 7.4590696 177.7578125 7.2109375 C175 7 175 7 173 6 C173 4.02 173 2.04 173 0 C215.57 0 258.14 0 302 0 C303 4 303 4 302.0703125 5.6953125 C298.89746305 7.69480631 295.52575015 7.63123338 291.875 7.875 C282.45853786 8.72197834 273.91086498 10.90198062 265 14 C263.75734375 14.43183594 262.5146875 14.86367187 261.234375 15.30859375 C232.34076157 26.15906773 209.84170559 45.79566645 188.4140625 67.390625 C186.97719805 68.83123146 185.53988261 70.27138823 184.10214233 71.71112061 C180.36600154 75.45480442 176.63591236 79.20445898 172.90716553 82.95550537 C169.08246001 86.80087337 165.25190374 90.64040401 161.421875 94.48046875 C153.94226546 101.98136299 146.46905295 109.48859492 139 117 C140.32318525 120.43402862 141.64507547 123.11985173 143.94140625 126.00390625 C144.52035645 126.73818848 145.09930664 127.4724707 145.69580078 128.22900391 C146.31181152 128.99905762 146.92782227 129.76911133 147.5625 130.5625 C148.8432082 132.1855983 150.12315666 133.80929637 151.40234375 135.43359375 C152.02351074 136.21976074 152.64467773 137.00592773 153.28466797 137.81591797 C156.94539114 142.47700955 160.46284601 147.24483472 164 152 C170.61986975 160.86926677 177.28576453 169.70192661 184 178.5 C190.23257358 186.66732808 196.4225109 194.86467017 202.57324219 203.09375 C204.01725317 205.02305146 205.46506202 206.94944366 206.9140625 208.875 C212.31498045 216.0550754 217.67680327 223.26208386 223 230.5 C225.33214891 233.66754078 227.66553991 236.8341622 230 240 C230.52094238 240.70688965 231.04188477 241.4137793 231.57861328 242.14208984 C238.65008462 251.71846681 245.98075098 261.03898064 253.54833984 270.22802734 C254.83183555 271.79472964 256.09883924 273.37491124 257.36328125 274.95703125 C270.95968477 291.93389341 284.65101769 308.02509266 307 312 C310.75544697 312.36220047 314.49304626 312.61607425 318.26171875 312.7890625 C321 313 321 313 322 314 C322.04080783 315.99958364 322.04254356 318.00045254 322 320 C314.59151205 320.13289726 307.18298487 320.26340178 299.77440643 320.39115143 C296.33135466 320.45059042 292.88831899 320.5107431 289.4453125 320.57275391 C281.54024087 320.71466476 273.63513921 320.84027155 265.72949219 320.94580078 C263.29385166 320.98119697 260.85828536 321.02228572 258.42285156 321.06982422 C255.14651869 321.13370945 251.87044593 321.17848753 248.59375 321.21875 C247.64592651 321.24199341 246.69810303 321.26523682 245.72155762 321.28918457 C236.47146953 321.36236896 229.60581645 319.3147679 222.8359375 312.92285156 C219.96416159 309.91512456 217.45410847 306.72791513 215 303.375 C213.87400807 301.86955964 212.7476908 300.36436257 211.62109375 298.859375 C211.03440918 298.06982422 210.44772461 297.28027344 209.84326172 296.46679688 C207.28752112 293.04650508 204.68785942 289.66057383 202.09033203 286.27197266 C195.5863224 277.78214934 189.18802722 269.22144767 182.86303711 260.59765625 C178.89013345 255.18755142 174.84514276 249.84544573 170.734375 244.5390625 C167.25485211 240.04621411 163.8170261 235.52159497 160.375 231 C159.6941333 230.10587402 159.0132666 229.21174805 158.31176758 228.29052734 C156.91103048 226.45092427 155.51039687 224.61124239 154.10986328 222.77148438 C150.67820802 218.26371413 147.24557543 213.75668873 143.8125 209.25 C143.14524902 208.37408203 142.47799805 207.49816406 141.79052734 206.59570312 C137.18488016 200.55128567 132.57160275 194.51275967 127.95263672 188.47851562 C124.88862121 184.47428561 121.83061072 180.46555859 118.77734375 176.453125 C118.05675781 175.50630859 117.33617187 174.55949219 116.59375 173.58398438 C115.1882638 171.73673756 113.78329066 169.88910023 112.37890625 168.04101562 C111.41597656 166.77547852 111.41597656 166.77547852 110.43359375 165.484375 C109.83530762 164.69740234 109.23702148 163.91042969 108.62060547 163.09960938 C107.2922324 161.37860781 105.9195877 159.69186213 104.53515625 158.015625 C103 156 103 156 103 154 C101.74839762 155.08148167 100.49879619 156.16527922 99.25 157.25 C98.55390625 157.85328125 97.8578125 158.4565625 97.140625 159.078125 C96.43421875 159.71234375 95.7278125 160.3465625 95 161 C94.30604818 161.59074216 93.61209637 162.18148432 92.89711571 162.79012775 C90.56609809 165.50543453 90.50137578 166.74484473 90.50552368 170.27983093 C90.4971347 171.34933487 90.48874573 172.41883881 90.48010254 173.52075195 C90.49134155 174.68912598 90.50258057 175.8575 90.51416016 177.0612793 C90.51036346 178.2958638 90.50656677 179.5304483 90.50265503 180.80244446 C90.49651299 184.18736538 90.50826413 187.57131014 90.52856112 190.95611548 C90.5461545 194.50465763 90.54260646 198.05318399 90.5418396 201.60176086 C90.54371282 207.56622109 90.56107203 213.53047788 90.58837891 219.49487305 C90.61975794 226.37376061 90.63037753 233.25242484 90.6289078 240.13137883 C90.6275519 247.47039862 90.6414702 254.80933317 90.65980101 262.14832711 C90.66404712 264.25409223 90.66548116 266.35984342 90.66627884 268.46561241 C90.66867914 272.40773649 90.68817548 276.34967882 90.70947266 280.29174805 C90.70856628 281.45000092 90.70765991 282.60825378 90.70672607 283.80160522 C90.76597615 296.14903948 90.76597615 296.14903948 96 307 C103.9205449 312.09177887 113.12736547 312.27744816 122.2355957 312.65869141 C127.80704235 312.90352117 127.80704235 312.90352117 130 314 C130.042721 315.66611905 130.04063832 317.33382885 130 319 C129 320 129 320 126.84669399 320.12304783 C125.88895108 320.12212604 124.93120817 320.12120424 123.94444275 320.12025452 C122.30162071 320.12231651 122.30162071 320.12231651 120.62561035 320.12442017 C119.41360962 320.12082489 118.20160889 320.11722961 116.95288086 320.11352539 C115.05071556 320.11374443 115.05071556 320.11374443 113.11012268 320.1139679 C109.62267578 320.11425585 106.13526299 320.10835945 102.64782405 320.10139394 C99.00696277 320.09516007 95.36610078 320.09455658 91.72523499 320.09336853 C84.82623028 320.09025531 77.92724135 320.08204205 71.0282436 320.07201904 C63.17589315 320.06085761 55.32354197 320.05534738 47.47118556 320.05032361 C31.31411447 320.03985943 15.15705924 320.02226017 -1 320 C-1.04254356 318.00045254 -1.04080783 315.99958364 -1 314 C1.00373947 311.99626053 5.04651123 312.72683184 7.8125 312.625 C16.38206625 312.22027346 25.45671256 311.46508494 33 307 C34.18028284 304.84902067 34.18028284 304.84902067 35 302 C35.24235528 301.38457964 35.48471055 300.76915928 35.73440993 300.13508981 C38.06083736 293.96103282 38.4247348 288.4419632 38.38095093 281.88661194 C38.3856309 280.79975285 38.39031087 279.71289375 38.39513266 278.59309953 C38.40705376 274.96827188 38.39763639 271.3438243 38.38818359 267.71899414 C38.39225058 265.11323324 38.39759318 262.50747406 38.40411377 259.90171814 C38.41742401 253.56886443 38.41458537 247.23611765 38.40587585 240.90325982 C38.39908841 235.75385639 38.39818716 230.60448284 38.4014473 225.45507622 C38.401907 224.72093677 38.40236669 223.98679731 38.40284032 223.23041121 C38.40379955 221.73880032 38.40477219 220.24718944 38.4057581 218.75557857 C38.41430421 204.78224784 38.40449042 190.80897624 38.388357 176.8356552 C38.37495732 164.85956409 38.37728052 152.88356024 38.39111328 140.9074707 C38.40718771 126.98417187 38.41347736 113.06092482 38.40427649 99.13761801 C38.40332089 97.65132519 38.40237778 96.16503237 38.4014473 94.67873955 C38.40098447 93.94754823 38.40052164 93.21635691 38.40004479 92.46300827 C38.39746028 87.32343571 38.40181431 82.18389614 38.40888596 77.04432869 C38.4182053 70.1192315 38.41151793 63.1943014 38.39420319 56.26922035 C38.39024276 53.73041303 38.39136476 51.19159183 38.39799118 48.65279007 C38.40621407 45.18179828 38.39587532 41.71133032 38.38095093 38.2403717 C38.38764309 37.24064695 38.39433526 36.24092219 38.40123022 35.21090275 C38.33796244 27.60134689 37.48158115 20.23984205 32.75 14.0625 C25.03430555 8.27572916 16.88676792 7.84016961 7.61914062 7.39453125 C2.20481947 7.10240974 2.20481947 7.10240974 0 6 C0 4.02 0 2.04 0 0 Z " fill="#031C57" transform="translate(207,100)"/>
<path d="M0 0 C40.92 0 81.84 0 124 0 C124 1.98 124 3.96 124 6 C121.29301359 7.35349321 118.95920095 7.22656557 115.9375 7.375 C108.72447467 7.87767765 102.31770649 9.41500595 96 13 C94.75732962 15.18428569 94.75732962 15.18428569 94 18 C93.649375 19.134375 93.29875 20.26875 92.9375 21.4375 C89.55770705 35.90701534 90.84808408 51.75381857 90.84228516 66.49682617 C90.83760985 69.17426247 90.83253036 71.85169491 90.82688904 74.52912903 C90.81542453 80.27576219 90.80714805 86.02239251 90.80076981 91.76903343 C90.7903671 100.88032797 90.76978262 109.99158699 90.74765015 119.1028595 C90.74017219 122.23176468 90.73275811 125.36067001 90.72536278 128.48957539 C90.72351221 129.27137157 90.72166165 130.05316776 90.719755 130.85865473 C90.69887341 139.73673968 90.68002591 148.61482853 90.66210938 157.49291992 C90.66047119 158.3033302 90.65883301 159.11374047 90.65714519 159.94870863 C90.63091994 173.05015455 90.6122396 186.15160325 90.59551747 199.25306424 C90.57800108 212.76070856 90.54905565 226.26829874 90.5106281 239.77589971 C90.48743345 248.07446701 90.47325231 256.37294599 90.47130047 264.67154596 C90.46916555 270.37824284 90.45602762 276.08485244 90.43482114 281.79150995 C90.42298233 285.06581781 90.41719192 288.33992263 90.42153358 291.614254 C90.4696667 334.87226352 86.06203288 380.44867779 54.5 413 C41.14083566 426.19383877 24.7538792 434.87109104 8 443 C7.0212793 443.48098145 6.04255859 443.96196289 5.03417969 444.45751953 C4.07157227 444.91626465 3.10896484 445.37500977 2.1171875 445.84765625 C0.82337158 446.46846069 0.82337158 446.46846069 -0.49658203 447.10180664 C-3.23358414 448.08380691 -5.1187385 448.40249777 -8 448 C-10 445 -10 445 -9.9375 443.04296875 C-8.59475789 440.1169099 -6.66869103 439.08050781 -4 437.3125 C6.67920766 429.79290287 13.46447994 421.114221 20 410 C20.48339844 409.17886719 20.96679688 408.35773438 21.46484375 407.51171875 C40.57947363 372.15270693 39.15383144 326.15427938 39.14526367 287.125 C39.14772454 284.37308115 39.15163887 281.62116472 39.15544128 278.86924744 C39.16367094 272.22109601 39.16649247 265.57295346 39.16705366 258.92479736 C39.16753186 253.51872147 39.16960154 248.11264846 39.17275429 242.70657349 C39.18153449 227.33567747 39.186177 211.96478838 39.18542381 196.59388983 C39.18536388 195.35656231 39.18536388 195.35656231 39.18530273 194.09423828 C39.18524141 192.85538079 39.18524141 192.85538079 39.18517885 191.59149587 C39.18477159 178.17958647 39.19436815 164.76770503 39.2084411 151.35580373 C39.22282045 137.54183904 39.22971065 123.72788799 39.22884732 109.91391563 C39.22851623 102.1751016 39.2312258 94.43631701 39.24202538 86.69750977 C39.25115023 80.11767385 39.25328881 73.53788077 39.24651595 66.95804125 C39.24326271 63.60657598 39.24424907 60.25525958 39.2518692 56.90379143 C39.2596134 53.26122774 39.25492835 49.61887762 39.24723816 45.97631836 C39.25238172 44.93155838 39.25752529 43.8867984 39.26282471 42.81037903 C39.21999348 33.58628106 38.77924305 24.10393386 34 16 C33.505 14.515 33.505 14.515 33 13 C30.93080674 11.86653414 30.93080674 11.86653414 28 11 C27.34257813 10.75121094 26.68515625 10.50242187 26.0078125 10.24609375 C19.82336386 8.0909071 13.94138881 7.55923402 7.44604492 7.37866211 C3.77584854 7.25037733 2.13708481 7.09138987 -1 5 C-0.67 3.35 -0.34 1.7 0 0 Z " fill="#021C56" transform="translate(47,100)"/>
<path d="M0 0 C1.14397247 -0.01272446 2.28794495 -0.02544891 3.46658325 -0.03855896 C5.33538651 -0.02877014 5.33538651 -0.02877014 7.24194336 -0.01878357 C9.22071976 -0.03170692 9.22071976 -0.03170692 11.23947144 -0.04489136 C14.8510979 -0.06736864 18.46228581 -0.06444999 22.07395554 -0.05556989 C25.09095381 -0.05045566 28.10786999 -0.05775595 31.12485981 -0.06504196 C38.24241135 -0.08203524 45.35974847 -0.0784805 52.47729492 -0.06175232 C59.81712862 -0.04482468 67.15636787 -0.06067511 74.49613667 -0.0929752 C80.80204064 -0.11967294 87.10775959 -0.12694687 93.41371441 -0.11846012 C97.17821639 -0.11353216 100.94236059 -0.11573908 104.70681763 -0.13624763 C108.90379959 -0.15801882 113.09965429 -0.13920437 117.29663086 -0.11643982 C119.16543411 -0.13397812 119.16543411 -0.13397812 121.07199097 -0.15187073 C130.43610739 -0.04829029 130.43610739 -0.04829029 133.51757812 2.99160767 C134.38467407 4.2405204 134.38467407 4.2405204 135.26928711 5.5146637 C135.59928711 5.8446637 135.92928711 6.1746637 136.26928711 6.5146637 C136.55791088 10.07435682 136.39159987 12.58385083 134.26928711 15.5146637 C130.61809759 17.31188939 127.65917796 17.76686196 123.61450195 17.77536011 C122.48735779 17.78244492 121.36021362 17.78952972 120.19891357 17.79682922 C118.97174622 17.79435181 117.74457886 17.79187439 116.48022461 17.7893219 C114.53070892 17.7969883 114.53070892 17.7969883 112.54180908 17.80480957 C108.98400297 17.81817972 105.4263032 17.81878058 101.86847687 17.81624627 C98.89623601 17.81517544 95.92401658 17.82006267 92.95178032 17.82485169 C85.93976102 17.83593951 78.9277953 17.83638805 71.91577148 17.83033752 C64.68514486 17.82429431 57.45471265 17.83661912 50.22411919 17.85790759 C44.01166482 17.87552496 37.79927233 17.88152484 31.5867939 17.87826985 C27.87826371 17.87645742 24.16987229 17.87908924 20.46136475 17.89298439 C16.32689792 17.90789669 12.19282699 17.89859149 8.05834961 17.88697815 C6.83118225 17.89462189 5.60401489 17.90226563 4.33966064 17.91014099 C3.21251648 17.90312668 2.08537231 17.89611237 0.92407227 17.8888855 C-0.05298676 17.88905324 -1.03004578 17.88922098 -2.03671265 17.88939381 C-5.52680606 17.40392871 -8.22301816 16.02235843 -10.73071289 13.5146637 C-11.00415039 11.58888245 -11.00415039 11.58888245 -11.10571289 9.2021637 C-11.15469727 8.42228088 -11.20368164 7.64239807 -11.25415039 6.83888245 C-10.00978584 1.31353239 -5.06273572 0.01432808 0 0 Z " fill="#021B56" transform="translate(411.730712890625,752.4853363037109)"/>
<path d="M0 0 C2.66579598 0.02980922 4.24158055 0.10805332 6.4921875 1.56640625 C8.85659312 4.12450612 9.73361926 6.03617193 9.875 9.5 C8.43542977 13.25887783 6.99197817 15.04125526 3.75 17.4375 C0.09048107 17.95111669 -2.22047997 17.87098212 -5.625 16.4375 C-8.07580002 13.42113074 -8.4634769 10.21383276 -8.25 6.4375 C-6.09358664 1.83061692 -4.99967879 0.27316126 0 0 Z " fill="#021C57" transform="translate(565.25,752.5625)"/>
<path d="M0 0 C1.88931937 3.04390344 1.60541628 5.32948195 1.125 8.8125 C-1.41637159 11.97204305 -3.02122659 13.52790886 -6.875 14.8125 C-13.11309524 12.73313492 -13.11309524 12.73313492 -15.375 10 C-16.27472646 6.06369675 -15.53508947 2.97551477 -13.5625 -0.5 C-9.31642122 -4.74607878 -4.68453185 -2.96687017 0 0 Z " fill="#031C56" transform="translate(296.875,924.1875)"/>
<path d="M0 0 C3.04332421 2.08227446 3.84308189 3.46199505 4.875 7 C5.00715839 10.17180132 4.88886253 11.48151662 3 14 C0.01365653 16.05954722 -2.42078617 16.35792138 -6 16 C-8.10546875 15.26171875 -8.10546875 15.26171875 -10 14 C-10.64453125 11.94140625 -10.64453125 11.94140625 -10.8125 9.5625 C-10.88082031 8.78003906 -10.94914063 7.99757813 -11.01953125 7.19140625 C-11 5 -11 5 -10 2 C-6.2794164 -0.48038907 -4.40203429 -0.46337203 0 0 Z " fill="#021B58" transform="translate(648,922)"/>
<path d="M0 0 C1.258125 -0.04125 2.51625 -0.0825 3.8125 -0.125 C4.52019531 -0.14820313 5.22789062 -0.17140625 5.95703125 -0.1953125 C8 0 8 0 11 2 C11.546875 4.05859375 11.546875 4.05859375 11.75 6.4375 C11.82734375 7.21996094 11.9046875 8.00242187 11.984375 8.80859375 C12 11 12 11 11 14 C7.76973631 16.27314853 4.86878511 16.48359814 1 16 C-1.375 14.5 -1.375 14.5 -3 12 C-3.48770192 8.52426522 -3.60160199 5.20320397 -2 2 C-1.34 2 -0.68 2 0 2 C0 1.34 0 0.68 0 0 Z " fill="#031C57" transform="translate(310,922)"/>
<path d="M0 0 C0.66 0 1.32 0 2 0 C2.12375 0.804375 2.2475 1.60875 2.375 2.4375 C2.58125 3.283125 2.7875 4.12875 3 5 C3.66 5.33 4.32 5.66 5 6 C4.01 7.485 4.01 7.485 3 9 C0.03 8.505 0.03 8.505 -3 8 C-2.67 7.34 -2.34 6.68 -2 6 C-3.32 6 -4.64 6 -6 6 C-6 5.34 -6 4.68 -6 4 C-4.35 3.67 -2.7 3.34 -1 3 C-0.67 2.01 -0.34 1.02 0 0 Z " fill="#03274E" transform="translate(466,664)"/>
<path d="M0 0 C1.98 0 3.96 0 6 0 C4.79618552 2.49361571 3.54571278 4.68143083 2 7 C1.34 7 0.68 7 0 7 C-0.33 7.66 -0.66 8.32 -1 9 C-1.66 8.34 -2.32 7.68 -3 7 C-2.01 6.67 -1.02 6.34 0 6 C-0.33 5.01 -0.66 4.02 -1 3 C-0.67 2.01 -0.34 1.02 0 0 Z " fill="#01186A" transform="translate(472,661)"/>
<path d="M0 0 C2.0625 0.4375 2.0625 0.4375 4 1 C3.34 1 2.68 1 2 1 C2 1.66 2 2.32 2 3 C2.66 3.33 3.32 3.66 4 4 C3.01 4.33 2.02 4.66 1 5 C0.26676204 7.01508358 0.26676204 7.01508358 0 9 C-2.31 8.34 -4.62 7.68 -7 7 C-7 6.67 -7 6.34 -7 6 C-5.02 6 -3.04 6 -1 6 C-1.020625 5.195625 -1.04125 4.39125 -1.0625 3.5625 C-1 1 -1 1 0 0 Z " fill="#011135" transform="translate(595,501)"/>
<path d="M0 0 C1.65 0 3.3 0 5 0 C5 1.65 5 3.3 5 5 C2.69 5 0.38 5 -2 5 C-2 4.01 -2 3.02 -2 2 C-1.34 2 -0.68 2 0 2 C0 1.34 0 0.68 0 0 Z " fill="#001A5D" transform="translate(566,916)"/>
<path d="M0 0 C0.75 1.6875 0.75 1.6875 1 4 C-0.8125 6.75 -0.8125 6.75 -3 9 C-3.66 9 -4.32 9 -5 9 C-5.33 9.66 -5.66 10.32 -6 11 C-5.49396008 8.83125748 -5.00016187 7.00032373 -4 5 C-3.34 5 -2.68 5 -2 5 C-2 4.01 -2 3.02 -2 2 C-3.32 1.67 -4.64 1.34 -6 1 C-3.92446352 0.4465236 -2.15634036 0 0 0 Z " fill="#011E46" transform="translate(501,633)"/>
<path d="M0 0 C0 0.66 0 1.32 0 2 C-0.639375 2.103125 -1.27875 2.20625 -1.9375 2.3125 C-2.618125 2.539375 -3.29875 2.76625 -4 3 C-4.33 3.99 -4.66 4.98 -5 6 C-5.66 5.67 -6.32 5.34 -7 5 C-7 3.35 -7 1.7 -7 0 C-3.86650268 -1.04449911 -3.01031744 -0.93423645 0 0 Z " fill="#001764" transform="translate(559,665)"/>
<path d="M0 0 C2.475 0.495 2.475 0.495 5 1 C5 1.99 5 2.98 5 4 C5.66 4.33 6.32 4.66 7 5 C6.34 5 5.68 5 5 5 C4.67 5.99 4.34 6.98 4 8 C4 7.34 4 6.68 4 6 C3.01 6 2.02 6 1 6 C0.67 4.02 0.34 2.04 0 0 Z " fill="#002951" transform="translate(582,616)"/>
<path d="M0 0 C2.31 0 4.62 0 7 0 C7 0.66 7 1.32 7 2 C4 4 4 4 0 4 C0 2.68 0 1.36 0 0 Z " fill="#02254E" transform="translate(334,691)"/>
<path d="M0 0 C1.09658936 3.28976808 0.79953138 4.71303767 0 8 C-1.32 8 -2.64 8 -4 8 C-4 7.34 -4 6.68 -4 6 C-4.66 5.67 -5.32 5.34 -6 5 C-5.34 5 -4.68 5 -4 5 C-3.67 4.34 -3.34 3.68 -3 3 C-2.67 3.33 -2.34 3.66 -2 4 C-1.34 2.68 -0.68 1.36 0 0 Z " fill="#072352" transform="translate(594,499)"/>
<path d="M0 0 C0.66 0 1.32 0 2 0 C3.125 4.75 3.125 4.75 2 7 C0.35 7 -1.3 7 -3 7 C-3.33 6.34 -3.66 5.68 -4 5 C-3.01 4.34 -2.02 3.68 -1 3 C-0.67 2.01 -0.34 1.02 0 0 Z " fill="#001242" transform="translate(609,569)"/>
<path d="M0 0 C0.66 0 1.32 0 2 0 C2 2.64 2 5.28 2 8 C0.68 6.68 -0.64 5.36 -2 4 C-1.34 2.68 -0.68 1.36 0 0 Z " fill="#002E51" transform="translate(426,903)"/>
<path d="M0 0 C3.375 -0.125 3.375 -0.125 7 0 C7.66 0.66 8.32 1.32 9 2 C6.03 2 3.06 2 0 2 C0 1.34 0 0.68 0 0 Z " fill="#001B54" transform="translate(329,712)"/>
<path d="M0 0 C0.66 0 1.32 0 2 0 C1.6875 1.875 1.6875 1.875 1 4 C0.01 4.66 -0.98 5.32 -2 6 C-2.33 5.34 -2.66 4.68 -3 4 C-2.34 4 -1.68 4 -1 4 C-0.67 2.68 -0.34 1.36 0 0 Z " fill="#022357" transform="translate(482,654)"/>
<path d="M0 0 C0.99 0.33 1.98 0.66 3 1 C1.625 2.5 1.625 2.5 0 4 C-0.66 4 -1.32 4 -2 4 C-2 3.34 -2 2.68 -2 2 C-1.34 2 -0.68 2 0 2 C0 1.34 0 0.68 0 0 Z " fill="#001E4B" transform="translate(487,650)"/>
<path d="M0 0 C0.66 0 1.32 0 2 0 C1.34 1.65 0.68 3.3 0 5 C-0.66 4.67 -1.32 4.34 -2 4 C-1.34 2.68 -0.68 1.36 0 0 Z " fill="#022352" transform="translate(573,618)"/>
<path d="M0 0 C0.66 0 1.32 0 2 0 C2 1.32 2 2.64 2 4 C1.34 4 0.68 4 0 4 C0 2.68 0 1.36 0 0 Z " fill="#001C6D" transform="translate(614,733)"/>
<path d="M0 0 C1.65 0 3.3 0 5 0 C5 0.66 5 1.32 5 2 C3.35 1.67 1.7 1.34 0 1 C0 0.67 0 0.34 0 0 Z " fill="#011D4D" transform="translate(549,862)"/>
<path d="M0 0 C1.65 0 3.3 0 5 0 C4.67 0.66 4.34 1.32 4 2 C2.68 1.34 1.36 0.68 0 0 Z " fill="#002851" transform="translate(487,647)"/>
<path d="M0 0 C1.32 0 2.64 0 4 0 C4 0.66 4 1.32 4 2 C2.68 2 1.36 2 0 2 C0 1.34 0 0.68 0 0 Z " fill="#002C5A" transform="translate(588,514)"/>
<path d="M0 0 C0.99 0 1.98 0 3 0 C3 0.66 3 1.32 3 2 C2.01 2 1.02 2 0 2 C0 1.34 0 0.68 0 0 Z " fill="#001E5C" transform="translate(334,783)"/>
<path d="M0 0 C0.99 0 1.98 0 3 0 C3 0.66 3 1.32 3 2 C2.01 2 1.02 2 0 2 C0 1.34 0 0.68 0 0 Z " fill="#011C4B" transform="translate(330,709)"/>
<path d="M0 0 C0.99 0 1.98 0 3 0 C3 0.66 3 1.32 3 2 C2.01 2 1.02 2 0 2 C0 1.34 0 0.68 0 0 Z " fill="#002377" transform="translate(567,632)"/>
<path d="M0 0 C0.66 0 1.32 0 2 0 C2 0.99 2 1.98 2 3 C1.34 3 0.68 3 0 3 C0 2.01 0 1.02 0 0 Z " fill="#011551" transform="translate(599,584)"/>
<path d="M0 0 C0.99 0.33 1.98 0.66 3 1 C2.01 1.33 1.02 1.66 0 2 C0 1.34 0 0.68 0 0 Z " fill="#01165B" transform="translate(434,903)"/>
<path d="M0 0 C0.66 0 1.32 0 2 0 C2 0.66 2 1.32 2 2 C1.01 1.67 0.02 1.34 -1 1 C-0.67 0.67 -0.34 0.34 0 0 Z " fill="#001250" transform="translate(408,862)"/>
<path d="M0 0 C0.99 0.33 1.98 0.66 3 1 C2.01 1.33 1.02 1.66 0 2 C0 1.34 0 0.68 0 0 Z " fill="#000B56" transform="translate(355,825)"/>
<path d="M0 0 C0.66 0 1.32 0 2 0 C2 0.66 2 1.32 2 2 C1.01 1.67 0.02 1.34 -1 1 C-0.67 0.67 -0.34 0.34 0 0 Z " fill="#001F45" transform="translate(594,795)"/>
<path d="M0 0 C0.66 0 1.32 0 2 0 C2 0.66 2 1.32 2 2 C1.01 1.67 0.02 1.34 -1 1 C-0.67 0.67 -0.34 0.34 0 0 Z " fill="#021F64" transform="translate(520,615)"/>
<path d="M0 0 C0.99 0.33 1.98 0.66 3 1 C2.01 1.33 1.02 1.66 0 2 C0 1.34 0 0.68 0 0 Z " fill="#021D48" transform="translate(602,576)"/>
<path d="M0 0 C0.66 0 1.32 0 2 0 C2 0.66 2 1.32 2 2 C1.34 2 0.68 2 0 2 C0 1.34 0 0.68 0 0 Z " fill="#001E51" transform="translate(575,916)"/>
<path d="M0 0 C4 1 4 1 4 1 Z " fill="#00195E" transform="translate(438,873)"/>
<path d="M0 0 C0.66 0 1.32 0 2 0 C2 0.66 2 1.32 2 2 C1.34 2 0.68 2 0 2 C0 1.34 0 0.68 0 0 Z " fill="#002A45" transform="translate(435,872)"/>
<path d="M0 0 C0.66 0 1.32 0 2 0 C2 0.66 2 1.32 2 2 C1.34 2 0.68 2 0 2 C0 1.34 0 0.68 0 0 Z " fill="#001C4A" transform="translate(420,871)"/>
<path d="M0 0 C0.66 0 1.32 0 2 0 C2 0.66 2 1.32 2 2 C1.34 2 0.68 2 0 2 C0 1.34 0 0.68 0 0 Z " fill="#001087" transform="translate(532,868)"/>
<path d="M0 0 C0.66 0 1.32 0 2 0 C2 0.66 2 1.32 2 2 C1.34 2 0.68 2 0 2 C0 1.34 0 0.68 0 0 Z " fill="#001982" transform="translate(416,869)"/>
<path d="M0 0 C0.66 0 1.32 0 2 0 C2 0.66 2 1.32 2 2 C1.34 2 0.68 2 0 2 C0 1.34 0 0.68 0 0 Z " fill="#003C69" transform="translate(408,866)"/>
<path d="M0 0 C1 4 1 4 1 4 Z " fill="#00165D" transform="translate(415,863)"/>
<path d="M0 0 C0.66 0 1.32 0 2 0 C2 0.66 2 1.32 2 2 C1.34 2 0.68 2 0 2 C0 1.34 0 0.68 0 0 Z " fill="#001F53" transform="translate(403,860)"/>
<path d="M0 0 C0.66 0 1.32 0 2 0 C2 0.66 2 1.32 2 2 C1.34 2 0.68 2 0 2 C0 1.34 0 0.68 0 0 Z " fill="#001973" transform="translate(564,851)"/>
<path d="M0 0 C0.99 0 1.98 0 3 0 C2.67 0.66 2.34 1.32 2 2 C1.34 1.34 0.68 0.68 0 0 Z " fill="#001A3A" transform="translate(376,845)"/>
<path d="M0 0 C0.66 0 1.32 0 2 0 C2 0.66 2 1.32 2 2 C1.34 2 0.68 2 0 2 C0 1.34 0 0.68 0 0 Z " fill="#003565" transform="translate(597,795)"/>
<path d="M0 0 C1.485 0.99 1.485 0.99 3 2 C2.01 2 1.02 2 0 2 C0 1.34 0 0.68 0 0 Z " fill="#001675" transform="translate(598,789)"/>
<path d="M0 0 C0.66 0 1.32 0 2 0 C2 0.66 2 1.32 2 2 C1.34 2 0.68 2 0 2 C0 1.34 0 0.68 0 0 Z " fill="#001087" transform="translate(605,774)"/>
<path d="M0 0 C0.66 0 1.32 0 2 0 C2 0.66 2 1.32 2 2 C1.34 2 0.68 2 0 2 C0 1.34 0 0.68 0 0 Z " fill="#00156B" transform="translate(608,771)"/>
<path d="M0 0 C0.66 0 1.32 0 2 0 C2 0.66 2 1.32 2 2 C1.34 2 0.68 2 0 2 C0 1.34 0 0.68 0 0 Z " fill="#002B4B" transform="translate(612,747)"/>
<path d="M0 0 C0.66 0 1.32 0 2 0 C2 0.66 2 1.32 2 2 C1.34 2 0.68 2 0 2 C0 1.34 0 0.68 0 0 Z " fill="#002C5C" transform="translate(304,706)"/>
<path d="M0 0 C0.66 0 1.32 0 2 0 C2 0.66 2 1.32 2 2 C1.34 2 0.68 2 0 2 C0 1.34 0 0.68 0 0 Z " fill="#001828" transform="translate(476,658)"/>
<path d="M0 0 C0.66 0 1.32 0 2 0 C2 0.66 2 1.32 2 2 C1.34 2 0.68 2 0 2 C0 1.34 0 0.68 0 0 Z " fill="#002C55" transform="translate(550,652)"/>
<path d="M0 0 C0.66 0 1.32 0 2 0 C2 0.66 2 1.32 2 2 C1.34 2 0.68 2 0 2 C0 1.34 0 0.68 0 0 Z " fill="#0019B2" transform="translate(565,647)"/>
<path d="M0 0 C0.66 0 1.32 0 2 0 C2 0.66 2 1.32 2 2 C1.34 2 0.68 2 0 2 C0 1.34 0 0.68 0 0 Z " fill="#001F57" transform="translate(576,613)"/>
<path d="M0 0 C0.66 0 1.32 0 2 0 C2 0.66 2 1.32 2 2 C1.34 2 0.68 2 0 2 C0 1.34 0 0.68 0 0 Z " fill="#000E2E" transform="translate(593,597)"/>
<path d="M0 0 C0.66 0 1.32 0 2 0 C2 0.66 2 1.32 2 2 C1.34 2 0.68 2 0 2 C0 1.34 0 0.68 0 0 Z " fill="#001D5A" transform="translate(588,596)"/>
<path d="M0 0 C0.66 0 1.32 0 2 0 C2 0.66 2 1.32 2 2 C1.34 2 0.68 2 0 2 C0 1.34 0 0.68 0 0 Z " fill="#000C8A" transform="translate(651,565)"/>
<path d="M0 0 C0.66 0 1.32 0 2 0 C2 0.66 2 1.32 2 2 C1.34 2 0.68 2 0 2 C0 1.34 0 0.68 0 0 Z " fill="#000858" transform="translate(559,540)"/>
<path d="M0 0 C0.99 0.495 0.99 0.495 2 1 C1.01 1.495 1.01 1.495 0 2 C0 1.34 0 0.68 0 0 Z " fill="#031A53" transform="translate(431,910)"/>
<path d="M0 0 C0.33 0.66 0.66 1.32 1 2 C0.34 1.67 -0.32 1.34 -1 1 C-0.67 0.67 -0.34 0.34 0 0 Z " fill="#000749" transform="translate(529,868)"/>
<path d="M0 0 C0.99 0.495 0.99 0.495 2 1 C1.01 1.495 1.01 1.495 0 2 C0 1.34 0 0.68 0 0 Z " fill="#002150" transform="translate(391,854)"/>
<path d="M0 0 C0.33 0.66 0.66 1.32 1 2 C0.34 1.67 -0.32 1.34 -1 1 C-0.67 0.67 -0.34 0.34 0 0 Z " fill="#031065" transform="translate(569,853)"/>
<path d="" fill="#001336" transform="translate(0,0)"/>
<path d="" fill="#022C49" transform="translate(0,0)"/>
<path d="" fill="#001A53" transform="translate(0,0)"/>
<path d="" fill="#03155F" transform="translate(0,0)"/>
<path d="M0 0 C0.33 0.66 0.66 1.32 1 2 C0.34 1.67 -0.32 1.34 -1 1 C-0.67 0.67 -0.34 0.34 0 0 Z " fill="#001A54" transform="translate(549,654)"/>
<path d="M0 0 C0.66 0.66 1.32 1.32 2 2 C1.34 2 0.68 2 0 2 C0 1.34 0 0.68 0 0 Z " fill="#001B52" transform="translate(493,643)"/>
<path d="M0 0 C3 1 3 1 3 1 Z " fill="#032F4F" transform="translate(561,640)"/>
<path d="M0 0 C0.33 0.66 0.66 1.32 1 2 C0.34 1.67 -0.32 1.34 -1 1 C-0.67 0.67 -0.34 0.34 0 0 Z " fill="#002555" transform="translate(492,639)"/>
<path d="M0 0 C0.33 0.66 0.66 1.32 1 2 C0.34 1.67 -0.32 1.34 -1 1 C-0.67 0.67 -0.34 0.34 0 0 Z " fill="#001D52" transform="translate(537,597)"/>
<path d="M0 0 C3 1 3 1 3 1 Z " fill="#031760" transform="translate(641,569)"/>
<path d="" fill="#00274F" transform="translate(0,0)"/>
<path d="" fill="#041D55" transform="translate(0,0)"/>
<path d="M0 0 C2 1 2 1 2 1 Z " fill="#001D58" transform="translate(439,877)"/>
<path d="" fill="#001F51" transform="translate(0,0)"/>
<path d="M0 0 C2 1 2 1 2 1 Z " fill="#051B53" transform="translate(533,871)"/>
<path d="" fill="#000FA5" transform="translate(0,0)"/>
<path d="" fill="#001F55" transform="translate(0,0)"/>
<path d="" fill="#001A66" transform="translate(0,0)"/>
<path d="M0 0 C2 1 2 1 2 1 Z " fill="#041B51" transform="translate(567,847)"/>
<path d="" fill="#001B58" transform="translate(0,0)"/>
<path d="M0 0 C2 1 2 1 2 1 Z " fill="#001B5E" transform="translate(375,841)"/>
<path d="" fill="#001B4E" transform="translate(0,0)"/>
<path d="M0 0 C2 1 2 1 2 1 Z " fill="#00122D" transform="translate(376,839)"/>
<path d="M0 0 C2 1 2 1 2 1 Z " fill="#001B51" transform="translate(362,835)"/>
<path d="" fill="#000A67" transform="translate(0,0)"/>
<path d="" fill="#002561" transform="translate(0,0)"/>
<path d="M0 0 C2 1 2 1 2 1 Z " fill="#001B51" transform="translate(591,800)"/>
<path d="M0 0 C2 1 2 1 2 1 Z " fill="#002659" transform="translate(334,796)"/>
<path d="" fill="#000D28" transform="translate(0,0)"/>
<path d="" fill="#001D63" transform="translate(0,0)"/>
<path d="M0 0 C2 1 2 1 2 1 Z " fill="#041756" transform="translate(606,770)"/>
<path d="" fill="#000B6E" transform="translate(0,0)"/>
<path d="" fill="#001068" transform="translate(0,0)"/>
<path d="" fill="#041D55" transform="translate(0,0)"/>
<path d="" fill="#041858" transform="translate(0,0)"/>
<path d="" fill="#001D53" transform="translate(0,0)"/>
<path d="" fill="#051E54" transform="translate(0,0)"/>
<path d="M0 0 C2 1 2 1 2 1 Z " fill="#001F51" transform="translate(564,631)"/>
<path d="M0 0 C2 1 2 1 2 1 Z " fill="#00185F" transform="translate(567,629)"/>
<path d="" fill="#00185F" transform="translate(0,0)"/>
<path d="M0 0 C2 1 2 1 2 1 Z " fill="#00112A" transform="translate(512,623)"/>
<path d="" fill="#002D53" transform="translate(0,0)"/>
<path d="M0 0 C2 1 2 1 2 1 Z " fill="#001F57" transform="translate(576,616)"/>
<path d="" fill="#002758" transform="translate(0,0)"/>
<path d="M0 0 C2 1 2 1 2 1 Z " fill="#002052" transform="translate(583,604)"/>
<path d="M0 0 C2 1 2 1 2 1 Z " fill="#001D53" transform="translate(591,592)"/>
<path d="" fill="#001959" transform="translate(0,0)"/>
<path d="" fill="#001B48" transform="translate(0,0)"/>
<path d="M0 0 C2 1 2 1 2 1 Z " fill="#002953" transform="translate(600,579)"/>
<path d="" fill="#002059" transform="translate(0,0)"/>
<path d="" fill="#001A59" transform="translate(0,0)"/>
<path d="" fill="#001A59" transform="translate(0,0)"/>
<path d="" fill="#001F52" transform="translate(0,0)"/>
<path d="" fill="#001659" transform="translate(0,0)"/>
<path d="" fill="#001A59" transform="translate(0,0)"/>
<path d="" fill="#001E4B" transform="translate(0,0)"/>
<path d="" fill="#001855" transform="translate(0,0)"/>
<path d="" fill="#001F52" transform="translate(0,0)"/>
<path d="" fill="#001751" transform="translate(0,0)"/>
<path d="" fill="#001A59" transform="translate(0,0)"/>
<path d="" fill="#002050" transform="translate(0,0)"/>
<path d="" fill="#001B51" transform="translate(0,0)"/>
<path d="" fill="#002050" transform="translate(0,0)"/>
<path d="" fill="#001B5E" transform="translate(0,0)"/>
<path d="" fill="#001751" transform="translate(0,0)"/>
<path d="" fill="#001C55" transform="translate(0,0)"/>
<path d="" fill="#001751" transform="translate(0,0)"/>
<path d="" fill="#001A59" transform="translate(0,0)"/>
<path d="" fill="#001855" transform="translate(0,0)"/>
<path d="" fill="#001855" transform="translate(0,0)"/>
<path d="" fill="#001751" transform="translate(0,0)"/>
<path d="" fill="#001E4B" transform="translate(0,0)"/>
<path d="" fill="#001A59" transform="translate(0,0)"/>
<path d="" fill="#001F52" transform="translate(0,0)"/>
<path d="" fill="#001659" transform="translate(0,0)"/>
<path d="" fill="#0A1D4E" transform="translate(0,0)"/>
<path d="" fill="#001F52" transform="translate(0,0)"/>
<path d="" fill="#001751" transform="translate(0,0)"/>
<path d="" fill="#001A59" transform="translate(0,0)"/>
<path d="" fill="#002050" transform="translate(0,0)"/>
<path d="" fill="#001F52" transform="translate(0,0)"/>
<path d="" fill="#001E5A" transform="translate(0,0)"/>
<path d="" fill="#002255" transform="translate(0,0)"/>
<path d="" fill="#091B5B" transform="translate(0,0)"/>
<path d="" fill="#002255" transform="translate(0,0)"/>
<path d="" fill="#00144E" transform="translate(0,0)"/>
</svg>
